%TF.GenerationSoftware,KiCad,Pcbnew,(5.99.0-10558-ge4ac0fb5a1)*%
%TF.CreationDate,2021-10-01T15:24:51+01:00*%
%TF.ProjectId,vsop-breakout,76736f70-2d62-4726-9561-6b6f75742e6b,rev?*%
%TF.SameCoordinates,Original*%
%TF.FileFunction,Copper,L1,Top*%
%TF.FilePolarity,Positive*%
%FSLAX46Y46*%
G04 Gerber Fmt 4.6, Leading zero omitted, Abs format (unit mm)*
G04 Created by KiCad (PCBNEW (5.99.0-10558-ge4ac0fb5a1)) date 2021-10-01 15:24:51*
%MOMM*%
%LPD*%
G01*
G04 APERTURE LIST*
G04 Aperture macros list*
%AMRoundRect*
0 Rectangle with rounded corners*
0 $1 Rounding radius*
0 $2 $3 $4 $5 $6 $7 $8 $9 X,Y pos of 4 corners*
0 Add a 4 corners polygon primitive as box body*
4,1,4,$2,$3,$4,$5,$6,$7,$8,$9,$2,$3,0*
0 Add four circle primitives for the rounded corners*
1,1,$1+$1,$2,$3*
1,1,$1+$1,$4,$5*
1,1,$1+$1,$6,$7*
1,1,$1+$1,$8,$9*
0 Add four rect primitives between the rounded corners*
20,1,$1+$1,$2,$3,$4,$5,0*
20,1,$1+$1,$4,$5,$6,$7,0*
20,1,$1+$1,$6,$7,$8,$9,0*
20,1,$1+$1,$8,$9,$2,$3,0*%
G04 Aperture macros list end*
%TA.AperFunction,SMDPad,CuDef*%
%ADD10RoundRect,0.225000X0.225000X0.375000X-0.225000X0.375000X-0.225000X-0.375000X0.225000X-0.375000X0*%
%TD*%
%TA.AperFunction,SMDPad,CuDef*%
%ADD11RoundRect,0.249984X-0.439516X0.292516X-0.439516X-0.292516X0.439516X-0.292516X0.439516X0.292516X0*%
%TD*%
%TA.AperFunction,ComponentPad*%
%ADD12C,1.800000*%
%TD*%
%TA.AperFunction,ComponentPad*%
%ADD13RoundRect,0.250200X0.649800X0.649800X-0.649800X0.649800X-0.649800X-0.649800X0.649800X-0.649800X0*%
%TD*%
%TA.AperFunction,ComponentPad*%
%ADD14RoundRect,0.249900X0.600100X-0.600100X0.600100X0.600100X-0.600100X0.600100X-0.600100X-0.600100X0*%
%TD*%
%TA.AperFunction,ComponentPad*%
%ADD15O,1.700000X1.700000*%
%TD*%
%TA.AperFunction,SMDPad,CuDef*%
%ADD16R,0.270000X0.615000*%
%TD*%
%TA.AperFunction,SMDPad,CuDef*%
%ADD17R,1.600000X0.900000*%
%TD*%
%TA.AperFunction,SMDPad,CuDef*%
%ADD18RoundRect,0.205004X0.205496X0.284496X-0.205496X0.284496X-0.205496X-0.284496X0.205496X-0.284496X0*%
%TD*%
%TA.AperFunction,SMDPad,CuDef*%
%ADD19RoundRect,0.205004X-0.205496X-0.284496X0.205496X-0.284496X0.205496X0.284496X-0.205496X0.284496X0*%
%TD*%
%TA.AperFunction,SMDPad,CuDef*%
%ADD20RoundRect,0.152006X0.152494X-0.260994X0.152494X0.260994X-0.152494X0.260994X-0.152494X-0.260994X0*%
%TD*%
%TA.AperFunction,SMDPad,CuDef*%
%ADD21RoundRect,0.205000X0.205000X0.259500X-0.205000X0.259500X-0.205000X-0.259500X0.205000X-0.259500X0*%
%TD*%
%TA.AperFunction,Conductor*%
%ADD22C,0.150000*%
%TD*%
%TA.AperFunction,Conductor*%
%ADD23C,0.300000*%
%TD*%
%TA.AperFunction,Conductor*%
%ADD24C,0.200000*%
%TD*%
G04 APERTURE END LIST*
D10*
%TO.P,D1,2,A*%
%TO.N,Net-(D1-Pad2)*%
X164820000Y-123190000D03*
%TO.P,D1,1,K*%
%TO.N,GND*%
X167920000Y-123190000D03*
%TD*%
D11*
%TO.P,R2,2*%
%TO.N,Net-(Q1-Pad3)*%
X164750000Y-129865000D03*
%TO.P,R2,1*%
%TO.N,Net-(D1-Pad2)*%
X164750000Y-128135000D03*
%TD*%
D12*
%TO.P,D2,2,A*%
%TO.N,Net-(D1-Pad2)*%
X165100000Y-125730000D03*
D13*
%TO.P,D2,1,K*%
%TO.N,GND*%
X167640000Y-125730000D03*
%TD*%
D14*
%TO.P,J1,1,Pin_1*%
%TO.N,GND*%
X158755000Y-134620000D03*
D15*
%TO.P,J1,2,Pin_2*%
%TO.N,~EN*%
X161295000Y-134620000D03*
%TO.P,J1,3,Pin_3*%
%TO.N,/IR_RX*%
X163835000Y-134620000D03*
%TO.P,J1,4,Pin_4*%
%TO.N,/IR_TX*%
X166375000Y-134620000D03*
%TO.P,J1,5,Pin_5*%
%TO.N,VCC*%
X168915000Y-134620000D03*
%TD*%
D16*
%TO.P,U1,1*%
%TO.N,N/C*%
X160540000Y-128957000D03*
%TO.P,U1,2,Vs*%
%TO.N,Net-(C1-Pad1)*%
X161040000Y-128957000D03*
%TO.P,U1,3,OUT*%
%TO.N,/IR_RX*%
X161540000Y-128957000D03*
%TO.P,U1,4*%
%TO.N,N/C*%
X162040000Y-128957000D03*
%TO.P,U1,5*%
X162040000Y-127043000D03*
%TO.P,U1,6,~EN*%
%TO.N,~EN*%
X161540000Y-127043000D03*
%TO.P,U1,7,IN*%
%TO.N,Net-(R3-Pad2)*%
X161040000Y-127043000D03*
%TO.P,U1,8,~EN*%
%TO.N,~EN*%
X160540000Y-127043000D03*
D17*
%TO.P,U1,9,~EN*%
X161290000Y-128000000D03*
%TD*%
D18*
%TO.P,R3,2*%
%TO.N,Net-(R3-Pad2)*%
X161225000Y-125750000D03*
%TO.P,R3,1*%
%TO.N,Net-(D1-Pad2)*%
X162775000Y-125750000D03*
%TD*%
D19*
%TO.P,R1,1*%
%TO.N,Net-(C1-Pad1)*%
X160765000Y-131750000D03*
%TO.P,R1,2*%
%TO.N,VCC*%
X162315000Y-131750000D03*
%TD*%
D20*
%TO.P,Q1,3,D*%
%TO.N,Net-(Q1-Pad3)*%
X167640000Y-129887000D03*
%TO.P,Q1,2,S*%
%TO.N,VCC*%
X168590000Y-132113000D03*
%TO.P,Q1,1,G*%
%TO.N,/IR_TX*%
X166690000Y-132113000D03*
%TD*%
D21*
%TO.P,C1,2*%
%TO.N,GND*%
X159285000Y-130250000D03*
%TO.P,C1,1*%
%TO.N,Net-(C1-Pad1)*%
X160795000Y-130250000D03*
%TD*%
D22*
%TO.N,GND*%
X163750000Y-127900212D02*
X162249788Y-126400000D01*
X163750000Y-129000000D02*
X163750000Y-127900212D01*
X165750000Y-129000000D02*
X163750000Y-129000000D01*
X162249788Y-126400000D02*
X162100000Y-126400000D01*
D23*
%TO.N,VCC*%
X164250000Y-131750000D02*
X162315000Y-131750000D01*
X164649520Y-131350480D02*
X164250000Y-131750000D01*
X167827480Y-131350480D02*
X164649520Y-131350480D01*
X168590000Y-132113000D02*
X167827480Y-131350480D01*
%TO.N,Net-(D1-Pad2)*%
X165100000Y-124520000D02*
X165100000Y-125730000D01*
X164820000Y-124240000D02*
X165100000Y-124520000D01*
X164820000Y-123190000D02*
X164820000Y-124240000D01*
X164750000Y-127500000D02*
X165100000Y-127150000D01*
X164750000Y-128135000D02*
X164750000Y-127500000D01*
X165100000Y-127150000D02*
X165100000Y-125730000D01*
D24*
%TO.N,Net-(R3-Pad2)*%
X161040000Y-126645989D02*
X161040000Y-127043000D01*
X161250000Y-126435989D02*
X161040000Y-126645989D01*
X161250000Y-125775000D02*
X161250000Y-126435989D01*
X161225000Y-125750000D02*
X161250000Y-125775000D01*
%TO.N,Net-(C1-Pad1)*%
X161040000Y-129438620D02*
X161040000Y-128957000D01*
X160750000Y-129728620D02*
X161040000Y-129438620D01*
X160750000Y-130205000D02*
X160750000Y-129728620D01*
X160795000Y-130250000D02*
X160750000Y-130205000D01*
D23*
%TO.N,Net-(Q1-Pad3)*%
X167618000Y-129865000D02*
X167640000Y-129887000D01*
X164750000Y-129865000D02*
X167618000Y-129865000D01*
D24*
%TO.N,Net-(D1-Pad2)*%
X162795000Y-125730000D02*
X162775000Y-125750000D01*
X165100000Y-125730000D02*
X162795000Y-125730000D01*
%TO.N,~EN*%
X160290000Y-128000000D02*
X160040000Y-128250000D01*
X161290000Y-128000000D02*
X160290000Y-128000000D01*
X160040000Y-133365000D02*
X161295000Y-134620000D01*
X160040000Y-128250000D02*
X160040000Y-133365000D01*
%TO.N,/IR_RX*%
X161540000Y-132325000D02*
X161965000Y-132750000D01*
X161540000Y-128957000D02*
X161540000Y-132325000D01*
X161540000Y-132325000D02*
X163835000Y-134620000D01*
%TO.N,Net-(C1-Pad1)*%
X160765000Y-130280000D02*
X160795000Y-130250000D01*
X160765000Y-131750000D02*
X160765000Y-130280000D01*
%TO.N,/IR_TX*%
X166690000Y-132113000D02*
X166690000Y-134305000D01*
X166690000Y-134305000D02*
X166375000Y-134620000D01*
D23*
%TO.N,VCC*%
X168590000Y-132113000D02*
X168590000Y-134295000D01*
X168590000Y-134295000D02*
X168915000Y-134620000D01*
%TO.N,~EN*%
X160889500Y-128000000D02*
X161290000Y-128000000D01*
X160540000Y-127650500D02*
X160889500Y-128000000D01*
X160540000Y-127043000D02*
X160540000Y-127650500D01*
X161540000Y-127750000D02*
X161290000Y-128000000D01*
X161540000Y-127043000D02*
X161540000Y-127750000D01*
%TD*%
%TA.AperFunction,Conductor*%
%TO.N,GND*%
G36*
X169759131Y-121918394D02*
G01*
X169767729Y-121920321D01*
X169794118Y-121920957D01*
X169847281Y-121922238D01*
X169854599Y-121922686D01*
X169880450Y-121925232D01*
X169890061Y-121926657D01*
X170003922Y-121949305D01*
X170013349Y-121951667D01*
X170026534Y-121955667D01*
X170035678Y-121958939D01*
X170142921Y-122003360D01*
X170151699Y-122007511D01*
X170157895Y-122010822D01*
X170163859Y-122014010D01*
X170172182Y-122018998D01*
X170265146Y-122081114D01*
X170268714Y-122083498D01*
X170276498Y-122089271D01*
X170287184Y-122098041D01*
X170294365Y-122104549D01*
X170376446Y-122186630D01*
X170382967Y-122193826D01*
X170391717Y-122204487D01*
X170397502Y-122212286D01*
X170461996Y-122308809D01*
X170466988Y-122317138D01*
X170473484Y-122329290D01*
X170477635Y-122338065D01*
X170497637Y-122386356D01*
X170522061Y-122445322D01*
X170525333Y-122454466D01*
X170529333Y-122467651D01*
X170531695Y-122477078D01*
X170554343Y-122590939D01*
X170555768Y-122600550D01*
X170558314Y-122626401D01*
X170558762Y-122633719D01*
X170559726Y-122673718D01*
X170560679Y-122713271D01*
X170562606Y-122721869D01*
X170565000Y-122743509D01*
X170565000Y-136082491D01*
X170562606Y-136104131D01*
X170560679Y-136112729D01*
X170560562Y-136117596D01*
X170558762Y-136192281D01*
X170558314Y-136199599D01*
X170555768Y-136225450D01*
X170554343Y-136235061D01*
X170531695Y-136348922D01*
X170529333Y-136358349D01*
X170525333Y-136371534D01*
X170522061Y-136380678D01*
X170477635Y-136487935D01*
X170473484Y-136496710D01*
X170466988Y-136508862D01*
X170461997Y-136517189D01*
X170417282Y-136584112D01*
X170397508Y-136613706D01*
X170391717Y-136621513D01*
X170382967Y-136632174D01*
X170376446Y-136639370D01*
X170294365Y-136721451D01*
X170287184Y-136727959D01*
X170276498Y-136736729D01*
X170268716Y-136742501D01*
X170172182Y-136807002D01*
X170163862Y-136811988D01*
X170157895Y-136815178D01*
X170151699Y-136818489D01*
X170142921Y-136822640D01*
X170035678Y-136867061D01*
X170026534Y-136870333D01*
X170013349Y-136874333D01*
X170003922Y-136876695D01*
X169890061Y-136899343D01*
X169880450Y-136900768D01*
X169854599Y-136903314D01*
X169847281Y-136903762D01*
X169794118Y-136905043D01*
X169767729Y-136905679D01*
X169759131Y-136907606D01*
X169737491Y-136910000D01*
X157922509Y-136910000D01*
X157900869Y-136907606D01*
X157892271Y-136905679D01*
X157865882Y-136905043D01*
X157812719Y-136903762D01*
X157805401Y-136903314D01*
X157779550Y-136900768D01*
X157769939Y-136899343D01*
X157656078Y-136876695D01*
X157646651Y-136874333D01*
X157633466Y-136870333D01*
X157624322Y-136867061D01*
X157594124Y-136854553D01*
X157517065Y-136822635D01*
X157508297Y-136818487D01*
X157496138Y-136811988D01*
X157487809Y-136806996D01*
X157391286Y-136742502D01*
X157383487Y-136736717D01*
X157372826Y-136727967D01*
X157365630Y-136721446D01*
X157283549Y-136639365D01*
X157277041Y-136632184D01*
X157268271Y-136621498D01*
X157262498Y-136613714D01*
X157242719Y-136584112D01*
X157197998Y-136517182D01*
X157193006Y-136508852D01*
X157186511Y-136496699D01*
X157182360Y-136487921D01*
X157137939Y-136380678D01*
X157134667Y-136371534D01*
X157130667Y-136358349D01*
X157128305Y-136348922D01*
X157105657Y-136235061D01*
X157104232Y-136225450D01*
X157101686Y-136199599D01*
X157101238Y-136192281D01*
X157099438Y-136117596D01*
X157099321Y-136112729D01*
X157097394Y-136104131D01*
X157095000Y-136082491D01*
X157095000Y-133348254D01*
X159684895Y-133348254D01*
X159685856Y-133356374D01*
X159685856Y-133356377D01*
X159688814Y-133381365D01*
X159689140Y-133386889D01*
X159689164Y-133386887D01*
X159689500Y-133390954D01*
X159689500Y-133395039D01*
X159690170Y-133399065D01*
X159690171Y-133399076D01*
X159692344Y-133412130D01*
X159693001Y-133416742D01*
X159698616Y-133464182D01*
X159701969Y-133471164D01*
X159702395Y-133472513D01*
X159703667Y-133480153D01*
X159707552Y-133487353D01*
X159726352Y-133522197D01*
X159728468Y-133526351D01*
X159737557Y-133545277D01*
X159749148Y-133569414D01*
X159751340Y-133572022D01*
X159752851Y-133573533D01*
X159754306Y-133575120D01*
X159754189Y-133575227D01*
X159756192Y-133577499D01*
X159759100Y-133582888D01*
X159765111Y-133588444D01*
X159765112Y-133588446D01*
X159798746Y-133619537D01*
X159801548Y-133622230D01*
X160260636Y-134081318D01*
X160288413Y-134135835D01*
X160282456Y-134188328D01*
X160272120Y-134213976D01*
X160235025Y-134306021D01*
X160234124Y-134310634D01*
X160234123Y-134310638D01*
X160213616Y-134415650D01*
X160194776Y-134512122D01*
X160194226Y-134722116D01*
X160195104Y-134726738D01*
X160195104Y-134726743D01*
X160220363Y-134859782D01*
X160233395Y-134928425D01*
X160310870Y-135123605D01*
X160313410Y-135127584D01*
X160421316Y-135296639D01*
X160421320Y-135296644D01*
X160423854Y-135300614D01*
X160568272Y-135453064D01*
X160572102Y-135455811D01*
X160572103Y-135455812D01*
X160666270Y-135523354D01*
X160738911Y-135575456D01*
X160743192Y-135577429D01*
X160743191Y-135577429D01*
X160855229Y-135629079D01*
X160929616Y-135663372D01*
X160934183Y-135664498D01*
X160934186Y-135664499D01*
X161031561Y-135688507D01*
X161133505Y-135713641D01*
X161217927Y-135717991D01*
X161338516Y-135724206D01*
X161338521Y-135724206D01*
X161343221Y-135724448D01*
X161347882Y-135723797D01*
X161347885Y-135723797D01*
X161546530Y-135696056D01*
X161546533Y-135696055D01*
X161551197Y-135695404D01*
X161555661Y-135693880D01*
X161745469Y-135629079D01*
X161745472Y-135629078D01*
X161749929Y-135627556D01*
X161932246Y-135523354D01*
X162091569Y-135386556D01*
X162222150Y-135222098D01*
X162319277Y-135035916D01*
X162379446Y-134834726D01*
X162400485Y-134625788D01*
X162400500Y-134620000D01*
X162380555Y-134410955D01*
X162321441Y-134209453D01*
X162283526Y-134135835D01*
X162227447Y-134026952D01*
X162225290Y-134022764D01*
X162095572Y-133857626D01*
X162092016Y-133854540D01*
X162092012Y-133854536D01*
X161940527Y-133723084D01*
X161940526Y-133723083D01*
X161936967Y-133719995D01*
X161755198Y-133614839D01*
X161690647Y-133592423D01*
X161561270Y-133547495D01*
X161561264Y-133547494D01*
X161556825Y-133545952D01*
X161349003Y-133515820D01*
X161224289Y-133521592D01*
X161143942Y-133525311D01*
X161143941Y-133525311D01*
X161139234Y-133525529D01*
X160935084Y-133574729D01*
X160930794Y-133576680D01*
X160930790Y-133576681D01*
X160867157Y-133605613D01*
X160806359Y-133612486D01*
X160756177Y-133585495D01*
X160419496Y-133248814D01*
X160391719Y-133194297D01*
X160390500Y-133178810D01*
X160390500Y-132586892D01*
X160409407Y-132528701D01*
X160458907Y-132492737D01*
X160500751Y-132488533D01*
X160502425Y-132488725D01*
X160507928Y-132490000D01*
X161003754Y-132490000D01*
X161042014Y-132484248D01*
X161098582Y-132475744D01*
X161098584Y-132475743D01*
X161105903Y-132474643D01*
X161112575Y-132471439D01*
X161119648Y-132469263D01*
X161120101Y-132470735D01*
X161172330Y-132463719D01*
X161226177Y-132492772D01*
X161243790Y-132518256D01*
X161246451Y-132523799D01*
X161246454Y-132523803D01*
X161249148Y-132529414D01*
X161251340Y-132532022D01*
X161252851Y-132533533D01*
X161254306Y-132535120D01*
X161254189Y-132535227D01*
X161256192Y-132537499D01*
X161259100Y-132542888D01*
X161265111Y-132548444D01*
X161265112Y-132548446D01*
X161298746Y-132579537D01*
X161301548Y-132582230D01*
X162800636Y-134081318D01*
X162828413Y-134135835D01*
X162822456Y-134188328D01*
X162812120Y-134213976D01*
X162775025Y-134306021D01*
X162774124Y-134310634D01*
X162774123Y-134310638D01*
X162753616Y-134415650D01*
X162734776Y-134512122D01*
X162734226Y-134722116D01*
X162735104Y-134726738D01*
X162735104Y-134726743D01*
X162760363Y-134859782D01*
X162773395Y-134928425D01*
X162850870Y-135123605D01*
X162853410Y-135127584D01*
X162961316Y-135296639D01*
X162961320Y-135296644D01*
X162963854Y-135300614D01*
X163108272Y-135453064D01*
X163112102Y-135455811D01*
X163112103Y-135455812D01*
X163206270Y-135523354D01*
X163278911Y-135575456D01*
X163283192Y-135577429D01*
X163283191Y-135577429D01*
X163395229Y-135629079D01*
X163469616Y-135663372D01*
X163474183Y-135664498D01*
X163474186Y-135664499D01*
X163571561Y-135688507D01*
X163673505Y-135713641D01*
X163757927Y-135717991D01*
X163878516Y-135724206D01*
X163878521Y-135724206D01*
X163883221Y-135724448D01*
X163887882Y-135723797D01*
X163887885Y-135723797D01*
X164086530Y-135696056D01*
X164086533Y-135696055D01*
X164091197Y-135695404D01*
X164095661Y-135693880D01*
X164285469Y-135629079D01*
X164285472Y-135629078D01*
X164289929Y-135627556D01*
X164472246Y-135523354D01*
X164631569Y-135386556D01*
X164762150Y-135222098D01*
X164859277Y-135035916D01*
X164919446Y-134834726D01*
X164940485Y-134625788D01*
X164940500Y-134620000D01*
X164920555Y-134410955D01*
X164861441Y-134209453D01*
X164823526Y-134135835D01*
X164767447Y-134026952D01*
X164765290Y-134022764D01*
X164635572Y-133857626D01*
X164632016Y-133854540D01*
X164632012Y-133854536D01*
X164480527Y-133723084D01*
X164480526Y-133723083D01*
X164476967Y-133719995D01*
X164295198Y-133614839D01*
X164230647Y-133592423D01*
X164101270Y-133547495D01*
X164101264Y-133547494D01*
X164096825Y-133545952D01*
X163889003Y-133515820D01*
X163764289Y-133521592D01*
X163683942Y-133525311D01*
X163683941Y-133525311D01*
X163679234Y-133525529D01*
X163475084Y-133574729D01*
X163470794Y-133576680D01*
X163470790Y-133576681D01*
X163407157Y-133605613D01*
X163346359Y-133612486D01*
X163296177Y-133585495D01*
X162369686Y-132659004D01*
X162341909Y-132604487D01*
X162351480Y-132544055D01*
X162394745Y-132500790D01*
X162439690Y-132490000D01*
X162553754Y-132490000D01*
X162592014Y-132484248D01*
X162648582Y-132475744D01*
X162648584Y-132475743D01*
X162655903Y-132474643D01*
X162662574Y-132471440D01*
X162662576Y-132471439D01*
X162772670Y-132418572D01*
X162779338Y-132415370D01*
X162879887Y-132322423D01*
X162948662Y-132204019D01*
X162950497Y-132205085D01*
X162982896Y-132165915D01*
X163035948Y-132150500D01*
X164186521Y-132150500D01*
X164186551Y-132150502D01*
X164186566Y-132150507D01*
X164313434Y-132150507D01*
X164336375Y-132143053D01*
X164351476Y-132139428D01*
X164358199Y-132138363D01*
X164375306Y-132135653D01*
X164396796Y-132124703D01*
X164411145Y-132118759D01*
X164434093Y-132111303D01*
X164453610Y-132097123D01*
X164466849Y-132089009D01*
X164488347Y-132078056D01*
X164578056Y-131988347D01*
X164578063Y-131988332D01*
X164578084Y-131988308D01*
X164786416Y-131779976D01*
X164840933Y-131752199D01*
X164856420Y-131750980D01*
X166036000Y-131750980D01*
X166094191Y-131769887D01*
X166130155Y-131819387D01*
X166135000Y-131849980D01*
X166135000Y-132405562D01*
X166135609Y-132409406D01*
X166135609Y-132409408D01*
X166148287Y-132489450D01*
X166149945Y-132499920D01*
X166153481Y-132506859D01*
X166153481Y-132506860D01*
X166190512Y-132579537D01*
X166207827Y-132613520D01*
X166297980Y-132703673D01*
X166300249Y-132704829D01*
X166334654Y-132752182D01*
X166339500Y-132782776D01*
X166339500Y-133425439D01*
X166320593Y-133483630D01*
X166271093Y-133519594D01*
X166245077Y-133524333D01*
X166240177Y-133524560D01*
X166223942Y-133525311D01*
X166223941Y-133525311D01*
X166219234Y-133525529D01*
X166015084Y-133574729D01*
X165823922Y-133661646D01*
X165652644Y-133783142D01*
X165507430Y-133934834D01*
X165393520Y-134111249D01*
X165315025Y-134306021D01*
X165314124Y-134310634D01*
X165314123Y-134310638D01*
X165293616Y-134415650D01*
X165274776Y-134512122D01*
X165274226Y-134722116D01*
X165275104Y-134726738D01*
X165275104Y-134726743D01*
X165300363Y-134859782D01*
X165313395Y-134928425D01*
X165390870Y-135123605D01*
X165393410Y-135127584D01*
X165501316Y-135296639D01*
X165501320Y-135296644D01*
X165503854Y-135300614D01*
X165648272Y-135453064D01*
X165652102Y-135455811D01*
X165652103Y-135455812D01*
X165746270Y-135523354D01*
X165818911Y-135575456D01*
X165823192Y-135577429D01*
X165823191Y-135577429D01*
X165935229Y-135629079D01*
X166009616Y-135663372D01*
X166014183Y-135664498D01*
X166014186Y-135664499D01*
X166111561Y-135688507D01*
X166213505Y-135713641D01*
X166297927Y-135717991D01*
X166418516Y-135724206D01*
X166418521Y-135724206D01*
X166423221Y-135724448D01*
X166427882Y-135723797D01*
X166427885Y-135723797D01*
X166626530Y-135696056D01*
X166626533Y-135696055D01*
X166631197Y-135695404D01*
X166635661Y-135693880D01*
X166825469Y-135629079D01*
X166825472Y-135629078D01*
X166829929Y-135627556D01*
X167012246Y-135523354D01*
X167171569Y-135386556D01*
X167302150Y-135222098D01*
X167399277Y-135035916D01*
X167459446Y-134834726D01*
X167480485Y-134625788D01*
X167480500Y-134620000D01*
X167460555Y-134410955D01*
X167401441Y-134209453D01*
X167363526Y-134135835D01*
X167307447Y-134026952D01*
X167305290Y-134022764D01*
X167175572Y-133857626D01*
X167074615Y-133770019D01*
X167043057Y-133717601D01*
X167040500Y-133695247D01*
X167040500Y-132782776D01*
X167059407Y-132724585D01*
X167078554Y-132705439D01*
X167082020Y-132703673D01*
X167172173Y-132613520D01*
X167189489Y-132579537D01*
X167226519Y-132506860D01*
X167226519Y-132506859D01*
X167230055Y-132499920D01*
X167231714Y-132489450D01*
X167244391Y-132409408D01*
X167244391Y-132409406D01*
X167245000Y-132405562D01*
X167245000Y-131849980D01*
X167263907Y-131791789D01*
X167313407Y-131755825D01*
X167344000Y-131750980D01*
X167620580Y-131750980D01*
X167678771Y-131769887D01*
X167690584Y-131779976D01*
X168006004Y-132095396D01*
X168033781Y-132149913D01*
X168035000Y-132165400D01*
X168035000Y-132405562D01*
X168035609Y-132409406D01*
X168035609Y-132409408D01*
X168048287Y-132489450D01*
X168049945Y-132499920D01*
X168053481Y-132506859D01*
X168053481Y-132506860D01*
X168090512Y-132579537D01*
X168107827Y-132613520D01*
X168160504Y-132666197D01*
X168188281Y-132720714D01*
X168189500Y-132736201D01*
X168189500Y-133746678D01*
X168170593Y-133804869D01*
X168162014Y-133815138D01*
X168047430Y-133934834D01*
X167933520Y-134111249D01*
X167855025Y-134306021D01*
X167854124Y-134310634D01*
X167854123Y-134310638D01*
X167833616Y-134415650D01*
X167814776Y-134512122D01*
X167814226Y-134722116D01*
X167815104Y-134726738D01*
X167815104Y-134726743D01*
X167840363Y-134859782D01*
X167853395Y-134928425D01*
X167930870Y-135123605D01*
X167933410Y-135127584D01*
X168041316Y-135296639D01*
X168041320Y-135296644D01*
X168043854Y-135300614D01*
X168188272Y-135453064D01*
X168192102Y-135455811D01*
X168192103Y-135455812D01*
X168286270Y-135523354D01*
X168358911Y-135575456D01*
X168363192Y-135577429D01*
X168363191Y-135577429D01*
X168475229Y-135629079D01*
X168549616Y-135663372D01*
X168554183Y-135664498D01*
X168554186Y-135664499D01*
X168651561Y-135688507D01*
X168753505Y-135713641D01*
X168837927Y-135717991D01*
X168958516Y-135724206D01*
X168958521Y-135724206D01*
X168963221Y-135724448D01*
X168967882Y-135723797D01*
X168967885Y-135723797D01*
X169166530Y-135696056D01*
X169166533Y-135696055D01*
X169171197Y-135695404D01*
X169175661Y-135693880D01*
X169365469Y-135629079D01*
X169365472Y-135629078D01*
X169369929Y-135627556D01*
X169552246Y-135523354D01*
X169711569Y-135386556D01*
X169842150Y-135222098D01*
X169939277Y-135035916D01*
X169999446Y-134834726D01*
X170020485Y-134625788D01*
X170020500Y-134620000D01*
X170000555Y-134410955D01*
X169941441Y-134209453D01*
X169903526Y-134135835D01*
X169847447Y-134026952D01*
X169845290Y-134022764D01*
X169715572Y-133857626D01*
X169712016Y-133854540D01*
X169712012Y-133854536D01*
X169560527Y-133723084D01*
X169560526Y-133723083D01*
X169556967Y-133719995D01*
X169375198Y-133614839D01*
X169310647Y-133592423D01*
X169181270Y-133547495D01*
X169181264Y-133547494D01*
X169176825Y-133545952D01*
X169172171Y-133545277D01*
X169172170Y-133545277D01*
X169075294Y-133531231D01*
X169020419Y-133504169D01*
X168991930Y-133450021D01*
X168990500Y-133433255D01*
X168990500Y-132736201D01*
X169009407Y-132678010D01*
X169019496Y-132666197D01*
X169072173Y-132613520D01*
X169089489Y-132579537D01*
X169126519Y-132506860D01*
X169126519Y-132506859D01*
X169130055Y-132499920D01*
X169131714Y-132489450D01*
X169144391Y-132409408D01*
X169144391Y-132409406D01*
X169145000Y-132405562D01*
X169145000Y-131820438D01*
X169144391Y-131816592D01*
X169131274Y-131733775D01*
X169131274Y-131733774D01*
X169130055Y-131726080D01*
X169072173Y-131612480D01*
X168982020Y-131522327D01*
X168975083Y-131518792D01*
X168975081Y-131518791D01*
X168875360Y-131467981D01*
X168875359Y-131467981D01*
X168868420Y-131464445D01*
X168860726Y-131463226D01*
X168860725Y-131463226D01*
X168777908Y-131450109D01*
X168777906Y-131450109D01*
X168774062Y-131449500D01*
X168533900Y-131449500D01*
X168475709Y-131430593D01*
X168463896Y-131420504D01*
X168155564Y-131112172D01*
X168155543Y-131112148D01*
X168155536Y-131112133D01*
X168065827Y-131022424D01*
X168044329Y-131011471D01*
X168031088Y-131003356D01*
X168017878Y-130993758D01*
X168011573Y-130989177D01*
X167988625Y-130981721D01*
X167974274Y-130975776D01*
X167952786Y-130964827D01*
X167935679Y-130962117D01*
X167928956Y-130961052D01*
X167913857Y-130957427D01*
X167898322Y-130952380D01*
X167898323Y-130952380D01*
X167890914Y-130949973D01*
X167764046Y-130949973D01*
X167764031Y-130949978D01*
X167764001Y-130949980D01*
X164713005Y-130949980D01*
X164712971Y-130949977D01*
X164712954Y-130949972D01*
X164586086Y-130949972D01*
X164578679Y-130952379D01*
X164578677Y-130952379D01*
X164563137Y-130957428D01*
X164548034Y-130961054D01*
X164543505Y-130961772D01*
X164524214Y-130964827D01*
X164517276Y-130968362D01*
X164502721Y-130975778D01*
X164488372Y-130981721D01*
X164465427Y-130989177D01*
X164445912Y-131003356D01*
X164432671Y-131011471D01*
X164411173Y-131022424D01*
X164321464Y-131112133D01*
X164321457Y-131112148D01*
X164321436Y-131112172D01*
X164113104Y-131320504D01*
X164058587Y-131348281D01*
X164043100Y-131349500D01*
X163032244Y-131349500D01*
X162974053Y-131330593D01*
X162943000Y-131293355D01*
X162904572Y-131213330D01*
X162901370Y-131206662D01*
X162808423Y-131106113D01*
X162802027Y-131102398D01*
X162802026Y-131102397D01*
X162696420Y-131041056D01*
X162690019Y-131037338D01*
X162610427Y-131018890D01*
X162577574Y-131011275D01*
X162577572Y-131011275D01*
X162572072Y-131010000D01*
X162076246Y-131010000D01*
X162004217Y-131020829D01*
X161943864Y-131010783D01*
X161900940Y-130967180D01*
X161890500Y-130922929D01*
X161890500Y-129619000D01*
X161909407Y-129560809D01*
X161958907Y-129524845D01*
X161989500Y-129520000D01*
X162175000Y-129520000D01*
X162272776Y-129500551D01*
X162314934Y-129472382D01*
X162347556Y-129450585D01*
X162355666Y-129445166D01*
X162411051Y-129362276D01*
X162430500Y-129264500D01*
X162430500Y-128649500D01*
X162411051Y-128551724D01*
X162362184Y-128478589D01*
X162345500Y-128423588D01*
X162345500Y-127576412D01*
X162362184Y-127521411D01*
X162372758Y-127505586D01*
X162411051Y-127448276D01*
X162430500Y-127350500D01*
X162430500Y-126735500D01*
X162411051Y-126637724D01*
X162405634Y-126629617D01*
X162403373Y-126624158D01*
X162398572Y-126563161D01*
X162430542Y-126510992D01*
X162487070Y-126487577D01*
X162506715Y-126489048D01*
X162506825Y-126488084D01*
X162512426Y-126488725D01*
X162517928Y-126490000D01*
X163013754Y-126490000D01*
X163056318Y-126483601D01*
X163108582Y-126475744D01*
X163108584Y-126475743D01*
X163115903Y-126474643D01*
X163122574Y-126471440D01*
X163122576Y-126471439D01*
X163232670Y-126418572D01*
X163239338Y-126415370D01*
X163339887Y-126322423D01*
X163343604Y-126316025D01*
X163404944Y-126210420D01*
X163408662Y-126204019D01*
X163410333Y-126196809D01*
X163410334Y-126196807D01*
X163419526Y-126157147D01*
X163451084Y-126104728D01*
X163507425Y-126080869D01*
X163515969Y-126080500D01*
X163931170Y-126080500D01*
X163989361Y-126099407D01*
X164021076Y-126138052D01*
X164099308Y-126307750D01*
X164221351Y-126480437D01*
X164372820Y-126627992D01*
X164376595Y-126630514D01*
X164376597Y-126630516D01*
X164449717Y-126679373D01*
X164548643Y-126745473D01*
X164552810Y-126747263D01*
X164552815Y-126747266D01*
X164639580Y-126784543D01*
X164685581Y-126824885D01*
X164699500Y-126875503D01*
X164699500Y-126943100D01*
X164680593Y-127001291D01*
X164670504Y-127013104D01*
X164511692Y-127171916D01*
X164511668Y-127171937D01*
X164511653Y-127171944D01*
X164421944Y-127261653D01*
X164410991Y-127283151D01*
X164402871Y-127296399D01*
X164399382Y-127301200D01*
X164349878Y-127337158D01*
X164319296Y-127342000D01*
X164275571Y-127342000D01*
X164272080Y-127342500D01*
X164272079Y-127342500D01*
X164250140Y-127345642D01*
X164168611Y-127357318D01*
X164162188Y-127360238D01*
X164162189Y-127360238D01*
X164100367Y-127388347D01*
X164038144Y-127416638D01*
X163929570Y-127510191D01*
X163851617Y-127630458D01*
X163810552Y-127767769D01*
X163810000Y-127775197D01*
X163810000Y-128462429D01*
X163825318Y-128569389D01*
X163884638Y-128699856D01*
X163978191Y-128808430D01*
X164098458Y-128886383D01*
X164105216Y-128888404D01*
X164105218Y-128888405D01*
X164154349Y-128903098D01*
X164204683Y-128937886D01*
X164224956Y-128995615D01*
X164207424Y-129054235D01*
X164166959Y-129088069D01*
X164110770Y-129113617D01*
X164038144Y-129146638D01*
X163929570Y-129240191D01*
X163851617Y-129360458D01*
X163849596Y-129367216D01*
X163849595Y-129367218D01*
X163836667Y-129410446D01*
X163810552Y-129497769D01*
X163810000Y-129505197D01*
X163810000Y-130192429D01*
X163825318Y-130299389D01*
X163884638Y-130429856D01*
X163978191Y-130538430D01*
X164098458Y-130616383D01*
X164105216Y-130618404D01*
X164105218Y-130618405D01*
X164176631Y-130639762D01*
X164235769Y-130657448D01*
X164241115Y-130657845D01*
X164241119Y-130657846D01*
X164241253Y-130657856D01*
X164243197Y-130658000D01*
X165224429Y-130658000D01*
X165227920Y-130657500D01*
X165227921Y-130657500D01*
X165260082Y-130652894D01*
X165331389Y-130642682D01*
X165461856Y-130583362D01*
X165570430Y-130489809D01*
X165648383Y-130369542D01*
X165658374Y-130336134D01*
X165693161Y-130285801D01*
X165753223Y-130265500D01*
X167034987Y-130265500D01*
X167093178Y-130284407D01*
X167123197Y-130319555D01*
X167151684Y-130375463D01*
X167157827Y-130387520D01*
X167247980Y-130477673D01*
X167254917Y-130481208D01*
X167254919Y-130481209D01*
X167354640Y-130532019D01*
X167361580Y-130535555D01*
X167369274Y-130536774D01*
X167369275Y-130536774D01*
X167452092Y-130549891D01*
X167452094Y-130549891D01*
X167455938Y-130550500D01*
X167824062Y-130550500D01*
X167827906Y-130549891D01*
X167827908Y-130549891D01*
X167910725Y-130536774D01*
X167910726Y-130536774D01*
X167918420Y-130535555D01*
X167925360Y-130532019D01*
X168025081Y-130481209D01*
X168025083Y-130481208D01*
X168032020Y-130477673D01*
X168122173Y-130387520D01*
X168128317Y-130375463D01*
X168176519Y-130280860D01*
X168176519Y-130280859D01*
X168180055Y-130273920D01*
X168195000Y-130179562D01*
X168195000Y-129594438D01*
X168189127Y-129557357D01*
X168181274Y-129507775D01*
X168181274Y-129507774D01*
X168180055Y-129500080D01*
X168161926Y-129464500D01*
X168125709Y-129393419D01*
X168125708Y-129393417D01*
X168122173Y-129386480D01*
X168032020Y-129296327D01*
X168025083Y-129292792D01*
X168025081Y-129292791D01*
X167925360Y-129241981D01*
X167925359Y-129241981D01*
X167918420Y-129238445D01*
X167910726Y-129237226D01*
X167910725Y-129237226D01*
X167827908Y-129224109D01*
X167827906Y-129224109D01*
X167824062Y-129223500D01*
X167455938Y-129223500D01*
X167452094Y-129224109D01*
X167452092Y-129224109D01*
X167369275Y-129237226D01*
X167369274Y-129237226D01*
X167361580Y-129238445D01*
X167354641Y-129241981D01*
X167354640Y-129241981D01*
X167254919Y-129292791D01*
X167254917Y-129292792D01*
X167247980Y-129296327D01*
X167157827Y-129386480D01*
X167154292Y-129393418D01*
X167154289Y-129393422D01*
X167145615Y-129410446D01*
X167102350Y-129453710D01*
X167057406Y-129464500D01*
X165753830Y-129464500D01*
X165695639Y-129445593D01*
X165663708Y-129406476D01*
X165657772Y-129393419D01*
X165615362Y-129300144D01*
X165521809Y-129191570D01*
X165401542Y-129113617D01*
X165394784Y-129111596D01*
X165394782Y-129111595D01*
X165345651Y-129096902D01*
X165295317Y-129062114D01*
X165275044Y-129004385D01*
X165292576Y-128945765D01*
X165333041Y-128911931D01*
X165455432Y-128856283D01*
X165455433Y-128856282D01*
X165461856Y-128853362D01*
X165570430Y-128759809D01*
X165648383Y-128639542D01*
X165689448Y-128502231D01*
X165690000Y-128494803D01*
X165690000Y-127807571D01*
X165674682Y-127700611D01*
X165615362Y-127570144D01*
X165521809Y-127461570D01*
X165501336Y-127448300D01*
X165462789Y-127400784D01*
X165459534Y-127339685D01*
X165461636Y-127334200D01*
X165461303Y-127334092D01*
X165468759Y-127311147D01*
X165474702Y-127296799D01*
X165482118Y-127282244D01*
X165485653Y-127275306D01*
X165489426Y-127251486D01*
X165493052Y-127236383D01*
X165498101Y-127220843D01*
X165498101Y-127220841D01*
X165500508Y-127213434D01*
X165500508Y-127086566D01*
X165500503Y-127086549D01*
X165500500Y-127086515D01*
X165500500Y-126880131D01*
X165519407Y-126821940D01*
X165562210Y-126790410D01*
X165561541Y-126788906D01*
X165565684Y-126787062D01*
X165569984Y-126785602D01*
X165754482Y-126682278D01*
X165917062Y-126547062D01*
X166052278Y-126384482D01*
X166149758Y-126210420D01*
X166153384Y-126203945D01*
X166153385Y-126203943D01*
X166155602Y-126199984D01*
X166196161Y-126080500D01*
X166222113Y-126004048D01*
X166222114Y-126004045D01*
X166223573Y-125999746D01*
X166253916Y-125790474D01*
X166255500Y-125730000D01*
X166236151Y-125519427D01*
X166178752Y-125315906D01*
X166176743Y-125311832D01*
X166087237Y-125130330D01*
X166087235Y-125130326D01*
X166085226Y-125126253D01*
X165958704Y-124956820D01*
X165803424Y-124813280D01*
X165771056Y-124792857D01*
X165628423Y-124702863D01*
X165624586Y-124700442D01*
X165562815Y-124675798D01*
X165515773Y-124636674D01*
X165500500Y-124583846D01*
X165500500Y-124583485D01*
X165500503Y-124583451D01*
X165500508Y-124583434D01*
X165500508Y-124456566D01*
X165496298Y-124443608D01*
X165493052Y-124433617D01*
X165489426Y-124418514D01*
X165486871Y-124402386D01*
X165485653Y-124394694D01*
X165474702Y-124373201D01*
X165468759Y-124358853D01*
X165463709Y-124343313D01*
X165461303Y-124335907D01*
X165447123Y-124316390D01*
X165439009Y-124303151D01*
X165428056Y-124281653D01*
X165338347Y-124191944D01*
X165338332Y-124191937D01*
X165338308Y-124191916D01*
X165275745Y-124129353D01*
X165247968Y-124074836D01*
X165257539Y-124014404D01*
X165292408Y-123975948D01*
X165297462Y-123972716D01*
X165303879Y-123969798D01*
X165407087Y-123880869D01*
X165481187Y-123766547D01*
X165520222Y-123636022D01*
X165520500Y-123632281D01*
X165520500Y-122780088D01*
X165506186Y-122680140D01*
X165449798Y-122556121D01*
X165360869Y-122452913D01*
X165246547Y-122378813D01*
X165116022Y-122339778D01*
X165112281Y-122339500D01*
X164560088Y-122339500D01*
X164556597Y-122340000D01*
X164556596Y-122340000D01*
X164526772Y-122344271D01*
X164460140Y-122353814D01*
X164453717Y-122356734D01*
X164453718Y-122356734D01*
X164388568Y-122386356D01*
X164336121Y-122410202D01*
X164232913Y-122499131D01*
X164158813Y-122613453D01*
X164119778Y-122743978D01*
X164119500Y-122747719D01*
X164119500Y-123599912D01*
X164133814Y-123699860D01*
X164190202Y-123823879D01*
X164279131Y-123927087D01*
X164285051Y-123930924D01*
X164374347Y-123988803D01*
X164412893Y-124036319D01*
X164419500Y-124071878D01*
X164419500Y-124176521D01*
X164419498Y-124176551D01*
X164419493Y-124176566D01*
X164419493Y-124303434D01*
X164421900Y-124310842D01*
X164426947Y-124326377D01*
X164430572Y-124341476D01*
X164434347Y-124365306D01*
X164437886Y-124372251D01*
X164445296Y-124386794D01*
X164451241Y-124401145D01*
X164458697Y-124424093D01*
X164463278Y-124430398D01*
X164472876Y-124443608D01*
X164480991Y-124456849D01*
X164491944Y-124478347D01*
X164574057Y-124560460D01*
X164601834Y-124614977D01*
X164592263Y-124675409D01*
X164554672Y-124715544D01*
X164420814Y-124795181D01*
X164417399Y-124798176D01*
X164417396Y-124798178D01*
X164402935Y-124810860D01*
X164261830Y-124934606D01*
X164130916Y-125100670D01*
X164128803Y-125104685D01*
X164128803Y-125104686D01*
X164075151Y-125206662D01*
X164032457Y-125287809D01*
X164031111Y-125292144D01*
X164025611Y-125309856D01*
X163990299Y-125359823D01*
X163931064Y-125379500D01*
X163506650Y-125379500D01*
X163448459Y-125360593D01*
X163417406Y-125323355D01*
X163364572Y-125213330D01*
X163361370Y-125206662D01*
X163268423Y-125106113D01*
X163262027Y-125102398D01*
X163262026Y-125102397D01*
X163156420Y-125041056D01*
X163150019Y-125037338D01*
X163080771Y-125021288D01*
X163037574Y-125011275D01*
X163037572Y-125011275D01*
X163032072Y-125010000D01*
X162536246Y-125010000D01*
X162499436Y-125015534D01*
X162441418Y-125024256D01*
X162441416Y-125024257D01*
X162434097Y-125025357D01*
X162427426Y-125028560D01*
X162427424Y-125028561D01*
X162401404Y-125041056D01*
X162310662Y-125084630D01*
X162210113Y-125177577D01*
X162141338Y-125295981D01*
X162114000Y-125413928D01*
X162114000Y-126067754D01*
X162114550Y-126071411D01*
X162124569Y-126138052D01*
X162129357Y-126169903D01*
X162132560Y-126176574D01*
X162132561Y-126176576D01*
X162145704Y-126203945D01*
X162188630Y-126293338D01*
X162205376Y-126311454D01*
X162207544Y-126313799D01*
X162233160Y-126369364D01*
X162221223Y-126429373D01*
X162176293Y-126470906D01*
X162134846Y-126480000D01*
X161905000Y-126480000D01*
X161900236Y-126480948D01*
X161900232Y-126480948D01*
X161882628Y-126484450D01*
X161821867Y-126477260D01*
X161776936Y-126435728D01*
X161764998Y-126375719D01*
X161785696Y-126326298D01*
X161789887Y-126322423D01*
X161858662Y-126204019D01*
X161886000Y-126086072D01*
X161886000Y-125432246D01*
X161870643Y-125330097D01*
X161861873Y-125311832D01*
X161814572Y-125213330D01*
X161811370Y-125206662D01*
X161718423Y-125106113D01*
X161712027Y-125102398D01*
X161712026Y-125102397D01*
X161606420Y-125041056D01*
X161600019Y-125037338D01*
X161530771Y-125021288D01*
X161487574Y-125011275D01*
X161487572Y-125011275D01*
X161482072Y-125010000D01*
X160986246Y-125010000D01*
X160949436Y-125015534D01*
X160891418Y-125024256D01*
X160891416Y-125024257D01*
X160884097Y-125025357D01*
X160877426Y-125028560D01*
X160877424Y-125028561D01*
X160851404Y-125041056D01*
X160760662Y-125084630D01*
X160660113Y-125177577D01*
X160591338Y-125295981D01*
X160564000Y-125413928D01*
X160564000Y-126067754D01*
X160564550Y-126071411D01*
X160574569Y-126138052D01*
X160579357Y-126169903D01*
X160582560Y-126176574D01*
X160582561Y-126176576D01*
X160595704Y-126203945D01*
X160638630Y-126293338D01*
X160655376Y-126311454D01*
X160657544Y-126313799D01*
X160683160Y-126369364D01*
X160671223Y-126429373D01*
X160626293Y-126470906D01*
X160584846Y-126480000D01*
X160405000Y-126480000D01*
X160307224Y-126499449D01*
X160224334Y-126554834D01*
X160168949Y-126637724D01*
X160149500Y-126735500D01*
X160149500Y-126940505D01*
X160148281Y-126955992D01*
X160139500Y-127011432D01*
X160139500Y-127587021D01*
X160139498Y-127587051D01*
X160139493Y-127587066D01*
X160139493Y-127621349D01*
X160120586Y-127679540D01*
X160094194Y-127704518D01*
X160091194Y-127706455D01*
X160085586Y-127709148D01*
X160082978Y-127711340D01*
X160081470Y-127712848D01*
X160079880Y-127714306D01*
X160079773Y-127714189D01*
X160077501Y-127716192D01*
X160072112Y-127719100D01*
X160066556Y-127725111D01*
X160066554Y-127725112D01*
X160035463Y-127758746D01*
X160032770Y-127761548D01*
X159826572Y-127967746D01*
X159810271Y-127980909D01*
X159800744Y-127987061D01*
X159795678Y-127993487D01*
X159795676Y-127993489D01*
X159780102Y-128013244D01*
X159776430Y-128017377D01*
X159776448Y-128017392D01*
X159773797Y-128020521D01*
X159770918Y-128023400D01*
X159768549Y-128026716D01*
X159768545Y-128026720D01*
X159760841Y-128037501D01*
X159758057Y-128041210D01*
X159728473Y-128078737D01*
X159725905Y-128086048D01*
X159725257Y-128087296D01*
X159720751Y-128093602D01*
X159718408Y-128101438D01*
X159707065Y-128139368D01*
X159705622Y-128143808D01*
X159689794Y-128188879D01*
X159689500Y-128192273D01*
X159689500Y-128194412D01*
X159689408Y-128196545D01*
X159689249Y-128196538D01*
X159689058Y-128199580D01*
X159687304Y-128205444D01*
X159687625Y-128213618D01*
X159687625Y-128213619D01*
X159689424Y-128259414D01*
X159689500Y-128263300D01*
X159689500Y-133316326D01*
X159687282Y-133337162D01*
X159686617Y-133340252D01*
X159686617Y-133340256D01*
X159684895Y-133348254D01*
X157095000Y-133348254D01*
X157095000Y-122743509D01*
X157097394Y-122721869D01*
X157099321Y-122713271D01*
X157100274Y-122673718D01*
X157101238Y-122633719D01*
X157101686Y-122626401D01*
X157104232Y-122600550D01*
X157105657Y-122590939D01*
X157128305Y-122477078D01*
X157130667Y-122467651D01*
X157134667Y-122454466D01*
X157137939Y-122445322D01*
X157182360Y-122338079D01*
X157186511Y-122329301D01*
X157193006Y-122317148D01*
X157197998Y-122308818D01*
X157262499Y-122212284D01*
X157268271Y-122204502D01*
X157277041Y-122193816D01*
X157283549Y-122186635D01*
X157365630Y-122104554D01*
X157372826Y-122098033D01*
X157383487Y-122089283D01*
X157391287Y-122083497D01*
X157487811Y-122019003D01*
X157496138Y-122014012D01*
X157500245Y-122011816D01*
X157508297Y-122007513D01*
X157517065Y-122003365D01*
X157594124Y-121971447D01*
X157624322Y-121958939D01*
X157633466Y-121955667D01*
X157646651Y-121951667D01*
X157656078Y-121949305D01*
X157769939Y-121926657D01*
X157779550Y-121925232D01*
X157805401Y-121922686D01*
X157812719Y-121922238D01*
X157865882Y-121920957D01*
X157892271Y-121920321D01*
X157900869Y-121918394D01*
X157922509Y-121916000D01*
X169737491Y-121916000D01*
X169759131Y-121918394D01*
G37*
%TD.AperFunction*%
%TD*%
M02*
