%TF.GenerationSoftware,KiCad,Pcbnew,(5.99.0-10558-ge4ac0fb5a1)*%
%TF.CreationDate,2021-10-01T15:24:51+01:00*%
%TF.ProjectId,vsop-breakout,76736f70-2d62-4726-9561-6b6f75742e6b,rev?*%
%TF.SameCoordinates,Original*%
%TF.FileFunction,Legend,Bot*%
%TF.FilePolarity,Positive*%
%FSLAX46Y46*%
G04 Gerber Fmt 4.6, Leading zero omitted, Abs format (unit mm)*
G04 Created by KiCad (PCBNEW (5.99.0-10558-ge4ac0fb5a1)) date 2021-10-01 15:24:51*
%MOMM*%
%LPD*%
G01*
G04 APERTURE LIST*
%ADD10C,0.150000*%
G04 APERTURE END LIST*
D10*
X169976666Y-135886904D02*
X169710000Y-136686904D01*
X169443333Y-135886904D01*
X168719523Y-136610714D02*
X168757619Y-136648809D01*
X168871904Y-136686904D01*
X168948095Y-136686904D01*
X169062380Y-136648809D01*
X169138571Y-136572619D01*
X169176666Y-136496428D01*
X169214761Y-136344047D01*
X169214761Y-136229761D01*
X169176666Y-136077380D01*
X169138571Y-136001190D01*
X169062380Y-135925000D01*
X168948095Y-135886904D01*
X168871904Y-135886904D01*
X168757619Y-135925000D01*
X168719523Y-135963095D01*
X167919523Y-136610714D02*
X167957619Y-136648809D01*
X168071904Y-136686904D01*
X168148095Y-136686904D01*
X168262380Y-136648809D01*
X168338571Y-136572619D01*
X168376666Y-136496428D01*
X168414761Y-136344047D01*
X168414761Y-136229761D01*
X168376666Y-136077380D01*
X168338571Y-136001190D01*
X168262380Y-135925000D01*
X168148095Y-135886904D01*
X168071904Y-135886904D01*
X167957619Y-135925000D01*
X167919523Y-135963095D01*
X163963333Y-136686904D02*
X164230000Y-136305952D01*
X164420476Y-136686904D02*
X164420476Y-135886904D01*
X164115714Y-135886904D01*
X164039523Y-135925000D01*
X164001428Y-135963095D01*
X163963333Y-136039285D01*
X163963333Y-136153571D01*
X164001428Y-136229761D01*
X164039523Y-136267857D01*
X164115714Y-136305952D01*
X164420476Y-136305952D01*
X163696666Y-135886904D02*
X163163333Y-136686904D01*
X163163333Y-135886904D02*
X163696666Y-136686904D01*
X166979523Y-135886904D02*
X166522380Y-135886904D01*
X166750952Y-136686904D02*
X166750952Y-135886904D01*
X166331904Y-135886904D02*
X165798571Y-136686904D01*
X165798571Y-135886904D02*
X166331904Y-136686904D01*
X162070952Y-135661000D02*
X161347142Y-135661000D01*
X161880476Y-136267857D02*
X161613809Y-136267857D01*
X161499523Y-136686904D02*
X161880476Y-136686904D01*
X161880476Y-135886904D01*
X161499523Y-135886904D01*
X161347142Y-135661000D02*
X160509047Y-135661000D01*
X161156666Y-136686904D02*
X161156666Y-135886904D01*
X160699523Y-136686904D01*
X160699523Y-135886904D01*
X159359523Y-135925000D02*
X159435714Y-135886904D01*
X159550000Y-135886904D01*
X159664285Y-135925000D01*
X159740476Y-136001190D01*
X159778571Y-136077380D01*
X159816666Y-136229761D01*
X159816666Y-136344047D01*
X159778571Y-136496428D01*
X159740476Y-136572619D01*
X159664285Y-136648809D01*
X159550000Y-136686904D01*
X159473809Y-136686904D01*
X159359523Y-136648809D01*
X159321428Y-136610714D01*
X159321428Y-136344047D01*
X159473809Y-136344047D01*
X158978571Y-136686904D02*
X158978571Y-135886904D01*
X158521428Y-136686904D01*
X158521428Y-135886904D01*
X158140476Y-136686904D02*
X158140476Y-135886904D01*
X157950000Y-135886904D01*
X157835714Y-135925000D01*
X157759523Y-136001190D01*
X157721428Y-136077380D01*
X157683333Y-136229761D01*
X157683333Y-136344047D01*
X157721428Y-136496428D01*
X157759523Y-136572619D01*
X157835714Y-136648809D01*
X157950000Y-136686904D01*
X158140476Y-136686904D01*
X170134761Y-122171904D02*
X169868095Y-122971904D01*
X169601428Y-122171904D01*
X169372857Y-122933809D02*
X169258571Y-122971904D01*
X169068095Y-122971904D01*
X168991904Y-122933809D01*
X168953809Y-122895714D01*
X168915714Y-122819523D01*
X168915714Y-122743333D01*
X168953809Y-122667142D01*
X168991904Y-122629047D01*
X169068095Y-122590952D01*
X169220476Y-122552857D01*
X169296666Y-122514761D01*
X169334761Y-122476666D01*
X169372857Y-122400476D01*
X169372857Y-122324285D01*
X169334761Y-122248095D01*
X169296666Y-122210000D01*
X169220476Y-122171904D01*
X169030000Y-122171904D01*
X168915714Y-122210000D01*
X168420476Y-122171904D02*
X168268095Y-122171904D01*
X168191904Y-122210000D01*
X168115714Y-122286190D01*
X168077619Y-122438571D01*
X168077619Y-122705238D01*
X168115714Y-122857619D01*
X168191904Y-122933809D01*
X168268095Y-122971904D01*
X168420476Y-122971904D01*
X168496666Y-122933809D01*
X168572857Y-122857619D01*
X168610952Y-122705238D01*
X168610952Y-122438571D01*
X168572857Y-122286190D01*
X168496666Y-122210000D01*
X168420476Y-122171904D01*
X167734761Y-122971904D02*
X167734761Y-122171904D01*
X167430000Y-122171904D01*
X167353809Y-122210000D01*
X167315714Y-122248095D01*
X167277619Y-122324285D01*
X167277619Y-122438571D01*
X167315714Y-122514761D01*
X167353809Y-122552857D01*
X167430000Y-122590952D01*
X167734761Y-122590952D01*
X166896666Y-122971904D02*
X166744285Y-122971904D01*
X166668095Y-122933809D01*
X166630000Y-122895714D01*
X166553809Y-122781428D01*
X166515714Y-122629047D01*
X166515714Y-122324285D01*
X166553809Y-122248095D01*
X166591904Y-122210000D01*
X166668095Y-122171904D01*
X166820476Y-122171904D01*
X166896666Y-122210000D01*
X166934761Y-122248095D01*
X166972857Y-122324285D01*
X166972857Y-122514761D01*
X166934761Y-122590952D01*
X166896666Y-122629047D01*
X166820476Y-122667142D01*
X166668095Y-122667142D01*
X166591904Y-122629047D01*
X166553809Y-122590952D01*
X166515714Y-122514761D01*
X165830000Y-122171904D02*
X165982380Y-122171904D01*
X166058571Y-122210000D01*
X166096666Y-122248095D01*
X166172857Y-122362380D01*
X166210952Y-122514761D01*
X166210952Y-122819523D01*
X166172857Y-122895714D01*
X166134761Y-122933809D01*
X166058571Y-122971904D01*
X165906190Y-122971904D01*
X165830000Y-122933809D01*
X165791904Y-122895714D01*
X165753809Y-122819523D01*
X165753809Y-122629047D01*
X165791904Y-122552857D01*
X165830000Y-122514761D01*
X165906190Y-122476666D01*
X166058571Y-122476666D01*
X166134761Y-122514761D01*
X166172857Y-122552857D01*
X166210952Y-122629047D01*
X165449047Y-122248095D02*
X165410952Y-122210000D01*
X165334761Y-122171904D01*
X165144285Y-122171904D01*
X165068095Y-122210000D01*
X165030000Y-122248095D01*
X164991904Y-122324285D01*
X164991904Y-122400476D01*
X165030000Y-122514761D01*
X165487142Y-122971904D01*
X164991904Y-122971904D01*
X164306190Y-122171904D02*
X164458571Y-122171904D01*
X164534761Y-122210000D01*
X164572857Y-122248095D01*
X164649047Y-122362380D01*
X164687142Y-122514761D01*
X164687142Y-122819523D01*
X164649047Y-122895714D01*
X164610952Y-122933809D01*
X164534761Y-122971904D01*
X164382380Y-122971904D01*
X164306190Y-122933809D01*
X164268095Y-122895714D01*
X164230000Y-122819523D01*
X164230000Y-122629047D01*
X164268095Y-122552857D01*
X164306190Y-122514761D01*
X164382380Y-122476666D01*
X164534761Y-122476666D01*
X164610952Y-122514761D01*
X164649047Y-122552857D01*
X164687142Y-122629047D01*
X163734761Y-122171904D02*
X163658571Y-122171904D01*
X163582380Y-122210000D01*
X163544285Y-122248095D01*
X163506190Y-122324285D01*
X163468095Y-122476666D01*
X163468095Y-122667142D01*
X163506190Y-122819523D01*
X163544285Y-122895714D01*
X163582380Y-122933809D01*
X163658571Y-122971904D01*
X163734761Y-122971904D01*
X163810952Y-122933809D01*
X163849047Y-122895714D01*
X163887142Y-122819523D01*
X163925238Y-122667142D01*
X163925238Y-122476666D01*
X163887142Y-122324285D01*
X163849047Y-122248095D01*
X163810952Y-122210000D01*
X163734761Y-122171904D01*
X162249047Y-122552857D02*
X162134761Y-122590952D01*
X162096666Y-122629047D01*
X162058571Y-122705238D01*
X162058571Y-122819523D01*
X162096666Y-122895714D01*
X162134761Y-122933809D01*
X162210952Y-122971904D01*
X162515714Y-122971904D01*
X162515714Y-122171904D01*
X162249047Y-122171904D01*
X162172857Y-122210000D01*
X162134761Y-122248095D01*
X162096666Y-122324285D01*
X162096666Y-122400476D01*
X162134761Y-122476666D01*
X162172857Y-122514761D01*
X162249047Y-122552857D01*
X162515714Y-122552857D01*
X161715714Y-122971904D02*
X161715714Y-122438571D01*
X161715714Y-122590952D02*
X161677619Y-122514761D01*
X161639523Y-122476666D01*
X161563333Y-122438571D01*
X161487142Y-122438571D01*
X160915714Y-122933809D02*
X160991904Y-122971904D01*
X161144285Y-122971904D01*
X161220476Y-122933809D01*
X161258571Y-122857619D01*
X161258571Y-122552857D01*
X161220476Y-122476666D01*
X161144285Y-122438571D01*
X160991904Y-122438571D01*
X160915714Y-122476666D01*
X160877619Y-122552857D01*
X160877619Y-122629047D01*
X161258571Y-122705238D01*
X160191904Y-122971904D02*
X160191904Y-122552857D01*
X160230000Y-122476666D01*
X160306190Y-122438571D01*
X160458571Y-122438571D01*
X160534761Y-122476666D01*
X160191904Y-122933809D02*
X160268095Y-122971904D01*
X160458571Y-122971904D01*
X160534761Y-122933809D01*
X160572857Y-122857619D01*
X160572857Y-122781428D01*
X160534761Y-122705238D01*
X160458571Y-122667142D01*
X160268095Y-122667142D01*
X160191904Y-122629047D01*
X159810952Y-122971904D02*
X159810952Y-122171904D01*
X159734761Y-122667142D02*
X159506190Y-122971904D01*
X159506190Y-122438571D02*
X159810952Y-122743333D01*
X159049047Y-122971904D02*
X159125238Y-122933809D01*
X159163333Y-122895714D01*
X159201428Y-122819523D01*
X159201428Y-122590952D01*
X159163333Y-122514761D01*
X159125238Y-122476666D01*
X159049047Y-122438571D01*
X158934761Y-122438571D01*
X158858571Y-122476666D01*
X158820476Y-122514761D01*
X158782380Y-122590952D01*
X158782380Y-122819523D01*
X158820476Y-122895714D01*
X158858571Y-122933809D01*
X158934761Y-122971904D01*
X159049047Y-122971904D01*
X158096666Y-122438571D02*
X158096666Y-122971904D01*
X158439523Y-122438571D02*
X158439523Y-122857619D01*
X158401428Y-122933809D01*
X158325238Y-122971904D01*
X158210952Y-122971904D01*
X158134761Y-122933809D01*
X158096666Y-122895714D01*
X157830000Y-122438571D02*
X157525238Y-122438571D01*
X157715714Y-122171904D02*
X157715714Y-122857619D01*
X157677619Y-122933809D01*
X157601428Y-122971904D01*
X157525238Y-122971904D01*
X169753809Y-124259904D02*
X169753809Y-123459904D01*
X169449047Y-123459904D01*
X169372857Y-123498000D01*
X169334761Y-123536095D01*
X169296666Y-123612285D01*
X169296666Y-123726571D01*
X169334761Y-123802761D01*
X169372857Y-123840857D01*
X169449047Y-123878952D01*
X169753809Y-123878952D01*
X168839523Y-124259904D02*
X168915714Y-124221809D01*
X168953809Y-124183714D01*
X168991904Y-124107523D01*
X168991904Y-123878952D01*
X168953809Y-123802761D01*
X168915714Y-123764666D01*
X168839523Y-123726571D01*
X168725238Y-123726571D01*
X168649047Y-123764666D01*
X168610952Y-123802761D01*
X168572857Y-123878952D01*
X168572857Y-124107523D01*
X168610952Y-124183714D01*
X168649047Y-124221809D01*
X168725238Y-124259904D01*
X168839523Y-124259904D01*
X168230000Y-123726571D02*
X168230000Y-124526571D01*
X168230000Y-123764666D02*
X168153809Y-123726571D01*
X168001428Y-123726571D01*
X167925238Y-123764666D01*
X167887142Y-123802761D01*
X167849047Y-123878952D01*
X167849047Y-124107523D01*
X167887142Y-124183714D01*
X167925238Y-124221809D01*
X168001428Y-124259904D01*
X168153809Y-124259904D01*
X168230000Y-124221809D01*
X167163333Y-123726571D02*
X167163333Y-124259904D01*
X167506190Y-123726571D02*
X167506190Y-124145619D01*
X167468095Y-124221809D01*
X167391904Y-124259904D01*
X167277619Y-124259904D01*
X167201428Y-124221809D01*
X167163333Y-124183714D01*
X166668095Y-124259904D02*
X166744285Y-124221809D01*
X166782380Y-124145619D01*
X166782380Y-123459904D01*
X166020476Y-124259904D02*
X166020476Y-123840857D01*
X166058571Y-123764666D01*
X166134761Y-123726571D01*
X166287142Y-123726571D01*
X166363333Y-123764666D01*
X166020476Y-124221809D02*
X166096666Y-124259904D01*
X166287142Y-124259904D01*
X166363333Y-124221809D01*
X166401428Y-124145619D01*
X166401428Y-124069428D01*
X166363333Y-123993238D01*
X166287142Y-123955142D01*
X166096666Y-123955142D01*
X166020476Y-123917047D01*
X165753809Y-123726571D02*
X165449047Y-123726571D01*
X165639523Y-123459904D02*
X165639523Y-124145619D01*
X165601428Y-124221809D01*
X165525238Y-124259904D01*
X165449047Y-124259904D01*
X164877619Y-124221809D02*
X164953809Y-124259904D01*
X165106190Y-124259904D01*
X165182380Y-124221809D01*
X165220476Y-124145619D01*
X165220476Y-123840857D01*
X165182380Y-123764666D01*
X165106190Y-123726571D01*
X164953809Y-123726571D01*
X164877619Y-123764666D01*
X164839523Y-123840857D01*
X164839523Y-123917047D01*
X165220476Y-123993238D01*
X163772857Y-124259904D02*
X163849047Y-124221809D01*
X163887142Y-124183714D01*
X163925238Y-124107523D01*
X163925238Y-123878952D01*
X163887142Y-123802761D01*
X163849047Y-123764666D01*
X163772857Y-123726571D01*
X163658571Y-123726571D01*
X163582380Y-123764666D01*
X163544285Y-123802761D01*
X163506190Y-123878952D01*
X163506190Y-124107523D01*
X163544285Y-124183714D01*
X163582380Y-124221809D01*
X163658571Y-124259904D01*
X163772857Y-124259904D01*
X163163333Y-123726571D02*
X163163333Y-124259904D01*
X163163333Y-123802761D02*
X163125238Y-123764666D01*
X163049047Y-123726571D01*
X162934761Y-123726571D01*
X162858571Y-123764666D01*
X162820476Y-123840857D01*
X162820476Y-124259904D01*
X162134761Y-124221809D02*
X162210952Y-124259904D01*
X162363333Y-124259904D01*
X162439523Y-124221809D01*
X162477619Y-124145619D01*
X162477619Y-123840857D01*
X162439523Y-123764666D01*
X162363333Y-123726571D01*
X162210952Y-123726571D01*
X162134761Y-123764666D01*
X162096666Y-123840857D01*
X162096666Y-123917047D01*
X162477619Y-123993238D01*
X160801428Y-124259904D02*
X160801428Y-123459904D01*
X160801428Y-124221809D02*
X160877619Y-124259904D01*
X161030000Y-124259904D01*
X161106190Y-124221809D01*
X161144285Y-124183714D01*
X161182380Y-124107523D01*
X161182380Y-123878952D01*
X161144285Y-123802761D01*
X161106190Y-123764666D01*
X161030000Y-123726571D01*
X160877619Y-123726571D01*
X160801428Y-123764666D01*
X160420476Y-124259904D02*
X160420476Y-123726571D01*
X160420476Y-123459904D02*
X160458571Y-123498000D01*
X160420476Y-123536095D01*
X160382380Y-123498000D01*
X160420476Y-123459904D01*
X160420476Y-123536095D01*
X159925238Y-124259904D02*
X160001428Y-124221809D01*
X160039523Y-124183714D01*
X160077619Y-124107523D01*
X160077619Y-123878952D01*
X160039523Y-123802761D01*
X160001428Y-123764666D01*
X159925238Y-123726571D01*
X159810952Y-123726571D01*
X159734761Y-123764666D01*
X159696666Y-123802761D01*
X159658571Y-123878952D01*
X159658571Y-124107523D01*
X159696666Y-124183714D01*
X159734761Y-124221809D01*
X159810952Y-124259904D01*
X159925238Y-124259904D01*
X158972857Y-124259904D02*
X158972857Y-123459904D01*
X158972857Y-124221809D02*
X159049047Y-124259904D01*
X159201428Y-124259904D01*
X159277619Y-124221809D01*
X159315714Y-124183714D01*
X159353809Y-124107523D01*
X159353809Y-123878952D01*
X159315714Y-123802761D01*
X159277619Y-123764666D01*
X159201428Y-123726571D01*
X159049047Y-123726571D01*
X158972857Y-123764666D01*
X158287142Y-124221809D02*
X158363333Y-124259904D01*
X158515714Y-124259904D01*
X158591904Y-124221809D01*
X158630000Y-124145619D01*
X158630000Y-123840857D01*
X158591904Y-123764666D01*
X158515714Y-123726571D01*
X158363333Y-123726571D01*
X158287142Y-123764666D01*
X158249047Y-123840857D01*
X158249047Y-123917047D01*
X158630000Y-123993238D01*
X157906190Y-124183714D02*
X157868095Y-124221809D01*
X157906190Y-124259904D01*
X157944285Y-124221809D01*
X157906190Y-124183714D01*
X157906190Y-124259904D01*
X157906190Y-123955142D02*
X157944285Y-123498000D01*
X157906190Y-123459904D01*
X157868095Y-123498000D01*
X157906190Y-123955142D01*
X157906190Y-123459904D01*
X168610952Y-128123904D02*
X168610952Y-127323904D01*
X168306190Y-127323904D01*
X168230000Y-127362000D01*
X168191904Y-127400095D01*
X168153809Y-127476285D01*
X168153809Y-127590571D01*
X168191904Y-127666761D01*
X168230000Y-127704857D01*
X168306190Y-127742952D01*
X168610952Y-127742952D01*
X167468095Y-127590571D02*
X167468095Y-128123904D01*
X167810952Y-127590571D02*
X167810952Y-128009619D01*
X167772857Y-128085809D01*
X167696666Y-128123904D01*
X167582380Y-128123904D01*
X167506190Y-128085809D01*
X167468095Y-128047714D01*
X166972857Y-128123904D02*
X167049047Y-128085809D01*
X167087142Y-128009619D01*
X167087142Y-127323904D01*
X166553809Y-128123904D02*
X166630000Y-128085809D01*
X166668095Y-128009619D01*
X166668095Y-127323904D01*
X165296666Y-128123904D02*
X165296666Y-127323904D01*
X165296666Y-128085809D02*
X165372857Y-128123904D01*
X165525238Y-128123904D01*
X165601428Y-128085809D01*
X165639523Y-128047714D01*
X165677619Y-127971523D01*
X165677619Y-127742952D01*
X165639523Y-127666761D01*
X165601428Y-127628666D01*
X165525238Y-127590571D01*
X165372857Y-127590571D01*
X165296666Y-127628666D01*
X164801428Y-128123904D02*
X164877619Y-128085809D01*
X164915714Y-128047714D01*
X164953809Y-127971523D01*
X164953809Y-127742952D01*
X164915714Y-127666761D01*
X164877619Y-127628666D01*
X164801428Y-127590571D01*
X164687142Y-127590571D01*
X164610952Y-127628666D01*
X164572857Y-127666761D01*
X164534761Y-127742952D01*
X164534761Y-127971523D01*
X164572857Y-128047714D01*
X164610952Y-128085809D01*
X164687142Y-128123904D01*
X164801428Y-128123904D01*
X164268095Y-127590571D02*
X164115714Y-128123904D01*
X163963333Y-127742952D01*
X163810952Y-128123904D01*
X163658571Y-127590571D01*
X163353809Y-127590571D02*
X163353809Y-128123904D01*
X163353809Y-127666761D02*
X163315714Y-127628666D01*
X163239523Y-127590571D01*
X163125238Y-127590571D01*
X163049047Y-127628666D01*
X163010952Y-127704857D01*
X163010952Y-128123904D01*
X162210952Y-127098000D02*
X161487142Y-127098000D01*
X162020476Y-127704857D02*
X161753809Y-127704857D01*
X161639523Y-128123904D02*
X162020476Y-128123904D01*
X162020476Y-127323904D01*
X161639523Y-127323904D01*
X161487142Y-127098000D02*
X160649047Y-127098000D01*
X161296666Y-128123904D02*
X161296666Y-127323904D01*
X160839523Y-128123904D01*
X160839523Y-127323904D01*
X159963333Y-127590571D02*
X159658571Y-127590571D01*
X159849047Y-127323904D02*
X159849047Y-128009619D01*
X159810952Y-128085809D01*
X159734761Y-128123904D01*
X159658571Y-128123904D01*
X159277619Y-128123904D02*
X159353809Y-128085809D01*
X159391904Y-128047714D01*
X159430000Y-127971523D01*
X159430000Y-127742952D01*
X159391904Y-127666761D01*
X159353809Y-127628666D01*
X159277619Y-127590571D01*
X159163333Y-127590571D01*
X159087142Y-127628666D01*
X159049047Y-127666761D01*
X159010952Y-127742952D01*
X159010952Y-127971523D01*
X159049047Y-128047714D01*
X159087142Y-128085809D01*
X159163333Y-128123904D01*
X159277619Y-128123904D01*
X169849047Y-129411904D02*
X169849047Y-128878571D01*
X169849047Y-129030952D02*
X169810952Y-128954761D01*
X169772857Y-128916666D01*
X169696666Y-128878571D01*
X169620476Y-128878571D01*
X169049047Y-129373809D02*
X169125238Y-129411904D01*
X169277619Y-129411904D01*
X169353809Y-129373809D01*
X169391904Y-129297619D01*
X169391904Y-128992857D01*
X169353809Y-128916666D01*
X169277619Y-128878571D01*
X169125238Y-128878571D01*
X169049047Y-128916666D01*
X169010952Y-128992857D01*
X169010952Y-129069047D01*
X169391904Y-129145238D01*
X168325238Y-129373809D02*
X168401428Y-129411904D01*
X168553809Y-129411904D01*
X168630000Y-129373809D01*
X168668095Y-129335714D01*
X168706190Y-129259523D01*
X168706190Y-129030952D01*
X168668095Y-128954761D01*
X168630000Y-128916666D01*
X168553809Y-128878571D01*
X168401428Y-128878571D01*
X168325238Y-128916666D01*
X167982380Y-129411904D02*
X167982380Y-128878571D01*
X167982380Y-128611904D02*
X168020476Y-128650000D01*
X167982380Y-128688095D01*
X167944285Y-128650000D01*
X167982380Y-128611904D01*
X167982380Y-128688095D01*
X167296666Y-129373809D02*
X167372857Y-129411904D01*
X167525238Y-129411904D01*
X167601428Y-129373809D01*
X167639523Y-129297619D01*
X167639523Y-128992857D01*
X167601428Y-128916666D01*
X167525238Y-128878571D01*
X167372857Y-128878571D01*
X167296666Y-128916666D01*
X167258571Y-128992857D01*
X167258571Y-129069047D01*
X167639523Y-129145238D01*
X166991904Y-128878571D02*
X166801428Y-129411904D01*
X166610952Y-128878571D01*
X166001428Y-129373809D02*
X166077619Y-129411904D01*
X166230000Y-129411904D01*
X166306190Y-129373809D01*
X166344285Y-129297619D01*
X166344285Y-128992857D01*
X166306190Y-128916666D01*
X166230000Y-128878571D01*
X166077619Y-128878571D01*
X166001428Y-128916666D01*
X165963333Y-128992857D01*
X165963333Y-129069047D01*
X166344285Y-129145238D01*
X165010952Y-129411904D02*
X165010952Y-128611904D01*
X164172857Y-129411904D02*
X164439523Y-129030952D01*
X164630000Y-129411904D02*
X164630000Y-128611904D01*
X164325238Y-128611904D01*
X164249047Y-128650000D01*
X164210952Y-128688095D01*
X164172857Y-128764285D01*
X164172857Y-128878571D01*
X164210952Y-128954761D01*
X164249047Y-128992857D01*
X164325238Y-129030952D01*
X164630000Y-129030952D01*
X163791904Y-129373809D02*
X163791904Y-129411904D01*
X163830000Y-129488095D01*
X163868095Y-129526190D01*
X162496666Y-129411904D02*
X162496666Y-128611904D01*
X162496666Y-129373809D02*
X162572857Y-129411904D01*
X162725238Y-129411904D01*
X162801428Y-129373809D01*
X162839523Y-129335714D01*
X162877619Y-129259523D01*
X162877619Y-129030952D01*
X162839523Y-128954761D01*
X162801428Y-128916666D01*
X162725238Y-128878571D01*
X162572857Y-128878571D01*
X162496666Y-128916666D01*
X162001428Y-129411904D02*
X162077619Y-129373809D01*
X162115714Y-129335714D01*
X162153809Y-129259523D01*
X162153809Y-129030952D01*
X162115714Y-128954761D01*
X162077619Y-128916666D01*
X162001428Y-128878571D01*
X161887142Y-128878571D01*
X161810952Y-128916666D01*
X161772857Y-128954761D01*
X161734761Y-129030952D01*
X161734761Y-129259523D01*
X161772857Y-129335714D01*
X161810952Y-129373809D01*
X161887142Y-129411904D01*
X162001428Y-129411904D01*
X161391904Y-128878571D02*
X161391904Y-129411904D01*
X161391904Y-128954761D02*
X161353809Y-128916666D01*
X161277619Y-128878571D01*
X161163333Y-128878571D01*
X161087142Y-128916666D01*
X161049047Y-128992857D01*
X161049047Y-129411904D01*
X160630000Y-128611904D02*
X160706190Y-128764285D01*
X160401428Y-128878571D02*
X160096666Y-128878571D01*
X160287142Y-128611904D02*
X160287142Y-129297619D01*
X160249047Y-129373809D01*
X160172857Y-129411904D01*
X160096666Y-129411904D01*
X159334761Y-128878571D02*
X159030000Y-128878571D01*
X159220476Y-128611904D02*
X159220476Y-129297619D01*
X159182380Y-129373809D01*
X159106190Y-129411904D01*
X159030000Y-129411904D01*
X158649047Y-129411904D02*
X158725238Y-129373809D01*
X158763333Y-129335714D01*
X158801428Y-129259523D01*
X158801428Y-129030952D01*
X158763333Y-128954761D01*
X158725238Y-128916666D01*
X158649047Y-128878571D01*
X158534761Y-128878571D01*
X158458571Y-128916666D01*
X158420476Y-128954761D01*
X158382380Y-129030952D01*
X158382380Y-129259523D01*
X158420476Y-129335714D01*
X158458571Y-129373809D01*
X158534761Y-129411904D01*
X158649047Y-129411904D01*
X168439523Y-130166571D02*
X168134761Y-130166571D01*
X168325238Y-129899904D02*
X168325238Y-130585619D01*
X168287142Y-130661809D01*
X168210952Y-130699904D01*
X168134761Y-130699904D01*
X167868095Y-130699904D02*
X167868095Y-130166571D01*
X167868095Y-130318952D02*
X167830000Y-130242761D01*
X167791904Y-130204666D01*
X167715714Y-130166571D01*
X167639523Y-130166571D01*
X167030000Y-130699904D02*
X167030000Y-130280857D01*
X167068095Y-130204666D01*
X167144285Y-130166571D01*
X167296666Y-130166571D01*
X167372857Y-130204666D01*
X167030000Y-130661809D02*
X167106190Y-130699904D01*
X167296666Y-130699904D01*
X167372857Y-130661809D01*
X167410952Y-130585619D01*
X167410952Y-130509428D01*
X167372857Y-130433238D01*
X167296666Y-130395142D01*
X167106190Y-130395142D01*
X167030000Y-130357047D01*
X166649047Y-130166571D02*
X166649047Y-130699904D01*
X166649047Y-130242761D02*
X166610952Y-130204666D01*
X166534761Y-130166571D01*
X166420476Y-130166571D01*
X166344285Y-130204666D01*
X166306190Y-130280857D01*
X166306190Y-130699904D01*
X165963333Y-130661809D02*
X165887142Y-130699904D01*
X165734761Y-130699904D01*
X165658571Y-130661809D01*
X165620476Y-130585619D01*
X165620476Y-130547523D01*
X165658571Y-130471333D01*
X165734761Y-130433238D01*
X165849047Y-130433238D01*
X165925238Y-130395142D01*
X165963333Y-130318952D01*
X165963333Y-130280857D01*
X165925238Y-130204666D01*
X165849047Y-130166571D01*
X165734761Y-130166571D01*
X165658571Y-130204666D01*
X165277619Y-130699904D02*
X165277619Y-130166571D01*
X165277619Y-130242761D02*
X165239523Y-130204666D01*
X165163333Y-130166571D01*
X165049047Y-130166571D01*
X164972857Y-130204666D01*
X164934761Y-130280857D01*
X164934761Y-130699904D01*
X164934761Y-130280857D02*
X164896666Y-130204666D01*
X164820476Y-130166571D01*
X164706190Y-130166571D01*
X164630000Y-130204666D01*
X164591904Y-130280857D01*
X164591904Y-130699904D01*
X164210952Y-130699904D02*
X164210952Y-130166571D01*
X164210952Y-129899904D02*
X164249047Y-129938000D01*
X164210952Y-129976095D01*
X164172857Y-129938000D01*
X164210952Y-129899904D01*
X164210952Y-129976095D01*
X163944285Y-130166571D02*
X163639523Y-130166571D01*
X163830000Y-129899904D02*
X163830000Y-130585619D01*
X163791904Y-130661809D01*
X163715714Y-130699904D01*
X163639523Y-130699904D01*
X162649047Y-130699904D02*
X162725238Y-130661809D01*
X162763333Y-130623714D01*
X162801428Y-130547523D01*
X162801428Y-130318952D01*
X162763333Y-130242761D01*
X162725238Y-130204666D01*
X162649047Y-130166571D01*
X162534761Y-130166571D01*
X162458571Y-130204666D01*
X162420476Y-130242761D01*
X162382380Y-130318952D01*
X162382380Y-130547523D01*
X162420476Y-130623714D01*
X162458571Y-130661809D01*
X162534761Y-130699904D01*
X162649047Y-130699904D01*
X162039523Y-130166571D02*
X162039523Y-130699904D01*
X162039523Y-130242761D02*
X162001428Y-130204666D01*
X161925238Y-130166571D01*
X161810952Y-130166571D01*
X161734761Y-130204666D01*
X161696666Y-130280857D01*
X161696666Y-130699904D01*
X160820476Y-129899904D02*
X160363333Y-129899904D01*
X160591904Y-130699904D02*
X160591904Y-129899904D01*
X160172857Y-129899904D02*
X159639523Y-130699904D01*
X159639523Y-129899904D02*
X160172857Y-130699904D01*
X159334761Y-130623714D02*
X159296666Y-130661809D01*
X159334761Y-130699904D01*
X159372857Y-130661809D01*
X159334761Y-130623714D01*
X159334761Y-130699904D01*
X168953809Y-131187904D02*
X168801428Y-131187904D01*
X168725238Y-131226000D01*
X168649047Y-131302190D01*
X168610952Y-131454571D01*
X168610952Y-131721238D01*
X168649047Y-131873619D01*
X168725238Y-131949809D01*
X168801428Y-131987904D01*
X168953809Y-131987904D01*
X169030000Y-131949809D01*
X169106190Y-131873619D01*
X169144285Y-131721238D01*
X169144285Y-131454571D01*
X169106190Y-131302190D01*
X169030000Y-131226000D01*
X168953809Y-131187904D01*
X168268095Y-131454571D02*
X168268095Y-131987904D01*
X168268095Y-131530761D02*
X168230000Y-131492666D01*
X168153809Y-131454571D01*
X168039523Y-131454571D01*
X167963333Y-131492666D01*
X167925238Y-131568857D01*
X167925238Y-131987904D01*
X167430000Y-131987904D02*
X167506190Y-131949809D01*
X167544285Y-131873619D01*
X167544285Y-131187904D01*
X167201428Y-131454571D02*
X167010952Y-131987904D01*
X166820476Y-131454571D02*
X167010952Y-131987904D01*
X167087142Y-132178380D01*
X167125238Y-132216476D01*
X167201428Y-132254571D01*
X165791904Y-131987904D02*
X165868095Y-131949809D01*
X165906190Y-131911714D01*
X165944285Y-131835523D01*
X165944285Y-131606952D01*
X165906190Y-131530761D01*
X165868095Y-131492666D01*
X165791904Y-131454571D01*
X165677619Y-131454571D01*
X165601428Y-131492666D01*
X165563333Y-131530761D01*
X165525238Y-131606952D01*
X165525238Y-131835523D01*
X165563333Y-131911714D01*
X165601428Y-131949809D01*
X165677619Y-131987904D01*
X165791904Y-131987904D01*
X165182380Y-131454571D02*
X165182380Y-131987904D01*
X165182380Y-131530761D02*
X165144285Y-131492666D01*
X165068095Y-131454571D01*
X164953809Y-131454571D01*
X164877619Y-131492666D01*
X164839523Y-131568857D01*
X164839523Y-131987904D01*
X164153809Y-131949809D02*
X164230000Y-131987904D01*
X164382380Y-131987904D01*
X164458571Y-131949809D01*
X164496666Y-131873619D01*
X164496666Y-131568857D01*
X164458571Y-131492666D01*
X164382380Y-131454571D01*
X164230000Y-131454571D01*
X164153809Y-131492666D01*
X164115714Y-131568857D01*
X164115714Y-131645047D01*
X164496666Y-131721238D01*
X162820476Y-131987904D02*
X162820476Y-131568857D01*
X162858571Y-131492666D01*
X162934761Y-131454571D01*
X163087142Y-131454571D01*
X163163333Y-131492666D01*
X162820476Y-131949809D02*
X162896666Y-131987904D01*
X163087142Y-131987904D01*
X163163333Y-131949809D01*
X163201428Y-131873619D01*
X163201428Y-131797428D01*
X163163333Y-131721238D01*
X163087142Y-131683142D01*
X162896666Y-131683142D01*
X162820476Y-131645047D01*
X162553809Y-131454571D02*
X162249047Y-131454571D01*
X162439523Y-131187904D02*
X162439523Y-131873619D01*
X162401428Y-131949809D01*
X162325238Y-131987904D01*
X162249047Y-131987904D01*
X161258571Y-131987904D02*
X161334761Y-131949809D01*
X161372857Y-131911714D01*
X161410952Y-131835523D01*
X161410952Y-131606952D01*
X161372857Y-131530761D01*
X161334761Y-131492666D01*
X161258571Y-131454571D01*
X161144285Y-131454571D01*
X161068095Y-131492666D01*
X161030000Y-131530761D01*
X160991904Y-131606952D01*
X160991904Y-131835523D01*
X161030000Y-131911714D01*
X161068095Y-131949809D01*
X161144285Y-131987904D01*
X161258571Y-131987904D01*
X160649047Y-131454571D02*
X160649047Y-131987904D01*
X160649047Y-131530761D02*
X160610952Y-131492666D01*
X160534761Y-131454571D01*
X160420476Y-131454571D01*
X160344285Y-131492666D01*
X160306190Y-131568857D01*
X160306190Y-131987904D01*
X159582380Y-131949809D02*
X159658571Y-131987904D01*
X159810952Y-131987904D01*
X159887142Y-131949809D01*
X159925238Y-131911714D01*
X159963333Y-131835523D01*
X159963333Y-131606952D01*
X159925238Y-131530761D01*
X159887142Y-131492666D01*
X159810952Y-131454571D01*
X159658571Y-131454571D01*
X159582380Y-131492666D01*
X158934761Y-131949809D02*
X159010952Y-131987904D01*
X159163333Y-131987904D01*
X159239523Y-131949809D01*
X159277619Y-131873619D01*
X159277619Y-131568857D01*
X159239523Y-131492666D01*
X159163333Y-131454571D01*
X159010952Y-131454571D01*
X158934761Y-131492666D01*
X158896666Y-131568857D01*
X158896666Y-131645047D01*
X159277619Y-131721238D01*
X158553809Y-131911714D02*
X158515714Y-131949809D01*
X158553809Y-131987904D01*
X158591904Y-131949809D01*
X158553809Y-131911714D01*
X158553809Y-131987904D01*
X158553809Y-131683142D02*
X158591904Y-131226000D01*
X158553809Y-131187904D01*
X158515714Y-131226000D01*
X158553809Y-131683142D01*
X158553809Y-131187904D01*
X169353809Y-132475904D02*
X169087142Y-133275904D01*
X168820476Y-132475904D01*
X168096666Y-133199714D02*
X168134761Y-133237809D01*
X168249047Y-133275904D01*
X168325238Y-133275904D01*
X168439523Y-133237809D01*
X168515714Y-133161619D01*
X168553809Y-133085428D01*
X168591904Y-132933047D01*
X168591904Y-132818761D01*
X168553809Y-132666380D01*
X168515714Y-132590190D01*
X168439523Y-132514000D01*
X168325238Y-132475904D01*
X168249047Y-132475904D01*
X168134761Y-132514000D01*
X168096666Y-132552095D01*
X167296666Y-133199714D02*
X167334761Y-133237809D01*
X167449047Y-133275904D01*
X167525238Y-133275904D01*
X167639523Y-133237809D01*
X167715714Y-133161619D01*
X167753809Y-133085428D01*
X167791904Y-132933047D01*
X167791904Y-132818761D01*
X167753809Y-132666380D01*
X167715714Y-132590190D01*
X167639523Y-132514000D01*
X167525238Y-132475904D01*
X167449047Y-132475904D01*
X167334761Y-132514000D01*
X167296666Y-132552095D01*
X166344285Y-132856857D02*
X165734761Y-132856857D01*
X165734761Y-133085428D02*
X166344285Y-133085428D01*
X164782380Y-132552095D02*
X164744285Y-132514000D01*
X164668095Y-132475904D01*
X164477619Y-132475904D01*
X164401428Y-132514000D01*
X164363333Y-132552095D01*
X164325238Y-132628285D01*
X164325238Y-132704476D01*
X164363333Y-132818761D01*
X164820476Y-133275904D01*
X164325238Y-133275904D01*
X163982380Y-133199714D02*
X163944285Y-133237809D01*
X163982380Y-133275904D01*
X164020476Y-133237809D01*
X163982380Y-133199714D01*
X163982380Y-133275904D01*
X163449047Y-132475904D02*
X163372857Y-132475904D01*
X163296666Y-132514000D01*
X163258571Y-132552095D01*
X163220476Y-132628285D01*
X163182380Y-132780666D01*
X163182380Y-132971142D01*
X163220476Y-133123523D01*
X163258571Y-133199714D01*
X163296666Y-133237809D01*
X163372857Y-133275904D01*
X163449047Y-133275904D01*
X163525238Y-133237809D01*
X163563333Y-133199714D01*
X163601428Y-133123523D01*
X163639523Y-132971142D01*
X163639523Y-132780666D01*
X163601428Y-132628285D01*
X163563333Y-132552095D01*
X163525238Y-132514000D01*
X163449047Y-132475904D01*
X162230000Y-132971142D02*
X161620476Y-132971142D01*
X160706190Y-132475904D02*
X160210952Y-132475904D01*
X160477619Y-132780666D01*
X160363333Y-132780666D01*
X160287142Y-132818761D01*
X160249047Y-132856857D01*
X160210952Y-132933047D01*
X160210952Y-133123523D01*
X160249047Y-133199714D01*
X160287142Y-133237809D01*
X160363333Y-133275904D01*
X160591904Y-133275904D01*
X160668095Y-133237809D01*
X160706190Y-133199714D01*
X159868095Y-133199714D02*
X159830000Y-133237809D01*
X159868095Y-133275904D01*
X159906190Y-133237809D01*
X159868095Y-133199714D01*
X159868095Y-133275904D01*
X159144285Y-132475904D02*
X159296666Y-132475904D01*
X159372857Y-132514000D01*
X159410952Y-132552095D01*
X159487142Y-132666380D01*
X159525238Y-132818761D01*
X159525238Y-133123523D01*
X159487142Y-133199714D01*
X159449047Y-133237809D01*
X159372857Y-133275904D01*
X159220476Y-133275904D01*
X159144285Y-133237809D01*
X159106190Y-133199714D01*
X159068095Y-133123523D01*
X159068095Y-132933047D01*
X159106190Y-132856857D01*
X159144285Y-132818761D01*
X159220476Y-132780666D01*
X159372857Y-132780666D01*
X159449047Y-132818761D01*
X159487142Y-132856857D01*
X159525238Y-132933047D01*
X158839523Y-132475904D02*
X158572857Y-133275904D01*
X158306190Y-132475904D01*
M02*
