%TF.GenerationSoftware,KiCad,Pcbnew,(5.99.0-10558-ge4ac0fb5a1)*%
%TF.CreationDate,2021-10-01T15:24:51+01:00*%
%TF.ProjectId,vsop-breakout,76736f70-2d62-4726-9561-6b6f75742e6b,rev?*%
%TF.SameCoordinates,Original*%
%TF.FileFunction,Legend,Top*%
%TF.FilePolarity,Positive*%
%FSLAX46Y46*%
G04 Gerber Fmt 4.6, Leading zero omitted, Abs format (unit mm)*
G04 Created by KiCad (PCBNEW (5.99.0-10558-ge4ac0fb5a1)) date 2021-10-01 15:24:51*
%MOMM*%
%LPD*%
G01*
G04 APERTURE LIST*
%ADD10C,0.150000*%
%ADD11C,0.200000*%
%ADD12C,0.120000*%
G04 APERTURE END LIST*
D10*
X159650000Y-123075000D02*
X159550000Y-123125000D01*
X159275000Y-122825000D02*
X159650000Y-123075000D01*
X158250000Y-123825000D02*
X158250000Y-122975000D01*
X158250000Y-123825000D02*
X158250000Y-124675000D01*
X159250000Y-123825000D02*
X159250000Y-124675000D01*
X159250000Y-123825000D02*
X159250000Y-122975000D01*
X158750000Y-123825000D02*
X159750000Y-123825000D01*
X158750000Y-123825000D02*
X157750000Y-123825000D01*
X158750000Y-124325000D02*
X157900000Y-124325000D01*
X158750000Y-123325000D02*
X157900000Y-123325000D01*
X158750000Y-123325000D02*
X159600000Y-123325000D01*
X158750000Y-124325000D02*
X159600000Y-124325000D01*
X158750000Y-123825000D02*
X158750000Y-124825000D01*
X158750000Y-123825000D02*
X158750000Y-122885200D01*
X159850000Y-122722619D02*
X159850000Y-122484523D01*
X160088095Y-122579761D02*
X159850000Y-122484523D01*
X159611904Y-122579761D01*
X159992857Y-122294047D02*
X159850000Y-122484523D01*
X159707142Y-122294047D01*
D11*
X159750000Y-123825000D02*
G75*
G03*
X159750000Y-123825000I-1000000J0D01*
G01*
D10*
X159462500Y-122950000D02*
X159850000Y-122525000D01*
X159750000Y-123025000D02*
X159550000Y-123225000D01*
X159350000Y-122725000D02*
X159750000Y-123025000D01*
X159200000Y-122925000D02*
X159350000Y-122725000D01*
X167843333Y-135886904D02*
X168110000Y-136686904D01*
X168376666Y-135886904D01*
X169100476Y-136610714D02*
X169062380Y-136648809D01*
X168948095Y-136686904D01*
X168871904Y-136686904D01*
X168757619Y-136648809D01*
X168681428Y-136572619D01*
X168643333Y-136496428D01*
X168605238Y-136344047D01*
X168605238Y-136229761D01*
X168643333Y-136077380D01*
X168681428Y-136001190D01*
X168757619Y-135925000D01*
X168871904Y-135886904D01*
X168948095Y-135886904D01*
X169062380Y-135925000D01*
X169100476Y-135963095D01*
X169900476Y-136610714D02*
X169862380Y-136648809D01*
X169748095Y-136686904D01*
X169671904Y-136686904D01*
X169557619Y-136648809D01*
X169481428Y-136572619D01*
X169443333Y-136496428D01*
X169405238Y-136344047D01*
X169405238Y-136229761D01*
X169443333Y-136077380D01*
X169481428Y-136001190D01*
X169557619Y-135925000D01*
X169671904Y-135886904D01*
X169748095Y-135886904D01*
X169862380Y-135925000D01*
X169900476Y-135963095D01*
X165760476Y-135886904D02*
X166217619Y-135886904D01*
X165989047Y-136686904D02*
X165989047Y-135886904D01*
X166408095Y-135886904D02*
X166941428Y-136686904D01*
X166941428Y-135886904D02*
X166408095Y-136686904D01*
X163696666Y-136686904D02*
X163430000Y-136305952D01*
X163239523Y-136686904D02*
X163239523Y-135886904D01*
X163544285Y-135886904D01*
X163620476Y-135925000D01*
X163658571Y-135963095D01*
X163696666Y-136039285D01*
X163696666Y-136153571D01*
X163658571Y-136229761D01*
X163620476Y-136267857D01*
X163544285Y-136305952D01*
X163239523Y-136305952D01*
X163963333Y-135886904D02*
X164496666Y-136686904D01*
X164496666Y-135886904D02*
X163963333Y-136686904D01*
X160509047Y-135661000D02*
X161232857Y-135661000D01*
X160699523Y-136267857D02*
X160966190Y-136267857D01*
X161080476Y-136686904D02*
X160699523Y-136686904D01*
X160699523Y-135886904D01*
X161080476Y-135886904D01*
X161232857Y-135661000D02*
X162070952Y-135661000D01*
X161423333Y-136686904D02*
X161423333Y-135886904D01*
X161880476Y-136686904D01*
X161880476Y-135886904D01*
X158140476Y-135925000D02*
X158064285Y-135886904D01*
X157950000Y-135886904D01*
X157835714Y-135925000D01*
X157759523Y-136001190D01*
X157721428Y-136077380D01*
X157683333Y-136229761D01*
X157683333Y-136344047D01*
X157721428Y-136496428D01*
X157759523Y-136572619D01*
X157835714Y-136648809D01*
X157950000Y-136686904D01*
X158026190Y-136686904D01*
X158140476Y-136648809D01*
X158178571Y-136610714D01*
X158178571Y-136344047D01*
X158026190Y-136344047D01*
X158521428Y-136686904D02*
X158521428Y-135886904D01*
X158978571Y-136686904D01*
X158978571Y-135886904D01*
X159359523Y-136686904D02*
X159359523Y-135886904D01*
X159550000Y-135886904D01*
X159664285Y-135925000D01*
X159740476Y-136001190D01*
X159778571Y-136077380D01*
X159816666Y-136229761D01*
X159816666Y-136344047D01*
X159778571Y-136496428D01*
X159740476Y-136572619D01*
X159664285Y-136648809D01*
X159550000Y-136686904D01*
X159359523Y-136686904D01*
%TO.C,R2*%
X166457333Y-128468380D02*
X166124000Y-127992190D01*
X165885904Y-128468380D02*
X165885904Y-127468380D01*
X166266857Y-127468380D01*
X166362095Y-127516000D01*
X166409714Y-127563619D01*
X166457333Y-127658857D01*
X166457333Y-127801714D01*
X166409714Y-127896952D01*
X166362095Y-127944571D01*
X166266857Y-127992190D01*
X165885904Y-127992190D01*
X166838285Y-127563619D02*
X166885904Y-127516000D01*
X166981142Y-127468380D01*
X167219238Y-127468380D01*
X167314476Y-127516000D01*
X167362095Y-127563619D01*
X167409714Y-127658857D01*
X167409714Y-127754095D01*
X167362095Y-127896952D01*
X166790666Y-128468380D01*
X167409714Y-128468380D01*
%TO.C,U1*%
X158278095Y-127452380D02*
X158278095Y-128261904D01*
X158325714Y-128357142D01*
X158373333Y-128404761D01*
X158468571Y-128452380D01*
X158659047Y-128452380D01*
X158754285Y-128404761D01*
X158801904Y-128357142D01*
X158849523Y-128261904D01*
X158849523Y-127452380D01*
X159849523Y-128452380D02*
X159278095Y-128452380D01*
X159563809Y-128452380D02*
X159563809Y-127452380D01*
X159468571Y-127595238D01*
X159373333Y-127690476D01*
X159278095Y-127738095D01*
%TO.C,R3*%
X161833333Y-124702380D02*
X161500000Y-124226190D01*
X161261904Y-124702380D02*
X161261904Y-123702380D01*
X161642857Y-123702380D01*
X161738095Y-123750000D01*
X161785714Y-123797619D01*
X161833333Y-123892857D01*
X161833333Y-124035714D01*
X161785714Y-124130952D01*
X161738095Y-124178571D01*
X161642857Y-124226190D01*
X161261904Y-124226190D01*
X162166666Y-123702380D02*
X162785714Y-123702380D01*
X162452380Y-124083333D01*
X162595238Y-124083333D01*
X162690476Y-124130952D01*
X162738095Y-124178571D01*
X162785714Y-124273809D01*
X162785714Y-124511904D01*
X162738095Y-124607142D01*
X162690476Y-124654761D01*
X162595238Y-124702380D01*
X162309523Y-124702380D01*
X162214285Y-124654761D01*
X162166666Y-124607142D01*
%TO.C,R1*%
X163873333Y-132202380D02*
X163540000Y-131726190D01*
X163301904Y-132202380D02*
X163301904Y-131202380D01*
X163682857Y-131202380D01*
X163778095Y-131250000D01*
X163825714Y-131297619D01*
X163873333Y-131392857D01*
X163873333Y-131535714D01*
X163825714Y-131630952D01*
X163778095Y-131678571D01*
X163682857Y-131726190D01*
X163301904Y-131726190D01*
X164825714Y-132202380D02*
X164254285Y-132202380D01*
X164540000Y-132202380D02*
X164540000Y-131202380D01*
X164444761Y-131345238D01*
X164349523Y-131440476D01*
X164254285Y-131488095D01*
%TO.C,Q1*%
X169322761Y-129833619D02*
X169227523Y-129786000D01*
X169132285Y-129690761D01*
X168989428Y-129547904D01*
X168894190Y-129500285D01*
X168798952Y-129500285D01*
X168846571Y-129738380D02*
X168751333Y-129690761D01*
X168656095Y-129595523D01*
X168608476Y-129405047D01*
X168608476Y-129071714D01*
X168656095Y-128881238D01*
X168751333Y-128786000D01*
X168846571Y-128738380D01*
X169037047Y-128738380D01*
X169132285Y-128786000D01*
X169227523Y-128881238D01*
X169275142Y-129071714D01*
X169275142Y-129405047D01*
X169227523Y-129595523D01*
X169132285Y-129690761D01*
X169037047Y-129738380D01*
X168846571Y-129738380D01*
X170227523Y-129738380D02*
X169656095Y-129738380D01*
X169941809Y-129738380D02*
X169941809Y-128738380D01*
X169846571Y-128881238D01*
X169751333Y-128976476D01*
X169656095Y-129024095D01*
%TO.C,C1*%
X162373333Y-130607142D02*
X162325714Y-130654761D01*
X162182857Y-130702380D01*
X162087619Y-130702380D01*
X161944761Y-130654761D01*
X161849523Y-130559523D01*
X161801904Y-130464285D01*
X161754285Y-130273809D01*
X161754285Y-130130952D01*
X161801904Y-129940476D01*
X161849523Y-129845238D01*
X161944761Y-129750000D01*
X162087619Y-129702380D01*
X162182857Y-129702380D01*
X162325714Y-129750000D01*
X162373333Y-129797619D01*
X163325714Y-130702380D02*
X162754285Y-130702380D01*
X163040000Y-130702380D02*
X163040000Y-129702380D01*
X162944761Y-129845238D01*
X162849523Y-129940476D01*
X162754285Y-129988095D01*
%TO.C,D1*%
X166745000Y-123190000D02*
X165995000Y-122815000D01*
X167120000Y-123190000D02*
X166745000Y-123190000D01*
X165995000Y-123565000D02*
X166745000Y-123190000D01*
X165995000Y-122815000D02*
X165995000Y-123565000D01*
X166745000Y-122815000D02*
X166745000Y-123565000D01*
X165620000Y-123190000D02*
X165995000Y-123190000D01*
X167470000Y-124465000D02*
X165270000Y-124465000D01*
X165270000Y-121915000D02*
X167470000Y-121915000D01*
X165270000Y-122365000D02*
X165270000Y-121915000D01*
X165270000Y-124465000D02*
X165270000Y-124015000D01*
X167470000Y-124015000D02*
X167470000Y-124465000D01*
X167470000Y-121915000D02*
X167470000Y-122365000D01*
D12*
%TO.C,R2*%
X164075000Y-128798000D02*
X164075000Y-129202000D01*
X165425000Y-128798000D02*
X165425000Y-129202000D01*
D10*
%TO.C,U1*%
X162400000Y-129050000D02*
X162400000Y-126950000D01*
X160180000Y-129050000D02*
X160180000Y-126950000D01*
X160180000Y-129050000D02*
X160180000Y-129190000D01*
D12*
%TO.C,R3*%
X162244000Y-126225000D02*
X161756000Y-126225000D01*
X162244000Y-125275000D02*
X161756000Y-125275000D01*
%TO.C,R1*%
X161296000Y-132225000D02*
X161784000Y-132225000D01*
X161296000Y-131275000D02*
X161784000Y-131275000D01*
%TO.C,Q1*%
X166120000Y-130300000D02*
X167155000Y-130300000D01*
X166120000Y-131700000D02*
X166120000Y-130300000D01*
X166205000Y-131700000D02*
X166205000Y-132466000D01*
X168125000Y-130300000D02*
X169160000Y-130300000D01*
X169160000Y-130300000D02*
X169160000Y-131700000D01*
X168105000Y-131700000D02*
X167175000Y-131700000D01*
%TO.C,C1*%
X160265000Y-129800000D02*
X159815000Y-129800000D01*
X160265000Y-130700000D02*
X159815000Y-130700000D01*
%TD*%
M02*
